M48
; DRILL file KiCad 10.0.4-10.0.4~ubuntu24.04.1 date 2026-07-09T23:21:21
; FORMAT={-:-/ absolute / metric / decimal}
; #@! TF.CreationDate,2026-07-09T23:21:21+05:30
; #@! TF.GenerationSoftware,Kicad,Pcbnew,10.0.4-10.0.4~ubuntu24.04.1
; #@! TF.FileFunction,Plated,1,2,PTH
FMAT,2
METRIC
; #@! TA.AperFunction,Plated,PTH,ViaDrill
T1C0.100
; #@! TA.AperFunction,Plated,PTH,ViaDrill
T2C0.300
; #@! TA.AperFunction,Plated,PTH,ComponentDrill
T3C0.750
; #@! TA.AperFunction,Plated,PTH,ComponentDrill
T4C0.900
; #@! TA.AperFunction,Plated,PTH,ComponentDrill
T5C1.000
; #@! TA.AperFunction,Plated,PTH,ComponentDrill
T6C1.524
; #@! TA.AperFunction,Plated,PTH,ComponentDrill
T7C2.200
%
G90
G05
T1
X108.7Y-90.4
T2
X71.65Y-104.25
X72.399Y-107.201
X73.25Y-104.7
X94.4Y-113.25
X94.75Y-114.45
X96.8Y-89.5
X96.9Y-101.4
X98.5Y-107.5
X99.95Y-111.25
X103.8Y-109.15
X105.1Y-93.65
X106.4Y-92.05
X114.1Y-97.9
X116.1Y-112.25
X118.7Y-92.4
X175.9Y-99.6
T3
X194.25Y-95.4
X194.25Y-101.95
X196.25Y-95.4
X196.25Y-101.95
T4
X68.25Y-93.25
X68.25Y-95.79
X68.25Y-98.33
X68.25Y-100.87
X68.25Y-103.41
X68.25Y-105.95
X68.25Y-108.49
X68.25Y-111.03
X91.11Y-93.25
X91.11Y-95.79
X91.11Y-98.33
X91.11Y-100.87
X91.11Y-103.41
X91.11Y-105.95
X91.11Y-108.49
X91.11Y-111.03
T5
X99.39Y-88.45
X101.93Y-88.45
X104.47Y-88.45
X107.01Y-88.45
X109.55Y-88.45
X112.09Y-88.45
X114.63Y-88.45
X117.17Y-88.45
T6
X103.12Y-97.91
X105.66Y-104.26
X122.47Y-97.91
X125.01Y-104.26
X141.87Y-97.91
X144.41Y-104.26
X161.12Y-97.96
X163.66Y-104.31
X180.56Y-97.91
X183.1Y-104.26
T7
X65.4Y-117.65
X198.65Y-117.3
X199.4Y-87.85
M30
