%TF.GenerationSoftware,KiCad,Pcbnew,10.0.4-10.0.4~ubuntu24.04.1*%
%TF.CreationDate,2026-07-09T23:21:16+05:30*%
%TF.ProjectId,alarmclockfrblare,616c6172-6d63-46c6-9f63-6b6672626c61,rev?*%
%TF.SameCoordinates,Original*%
%TF.FileFunction,Copper,L2,Bot*%
%TF.FilePolarity,Positive*%
%FSLAX46Y46*%
G04 Gerber Fmt 4.6, Leading zero omitted, Abs format (unit mm)*
G04 Created by KiCad (PCBNEW 10.0.4-10.0.4~ubuntu24.04.1) date 2026-07-09 23:21:16*
%MOMM*%
%LPD*%
G01*
G04 APERTURE LIST*
G04 Aperture macros list*
%AMRoundRect*
0 Rectangle with rounded corners*
0 $1 Rounding radius*
0 $2 $3 $4 $5 $6 $7 $8 $9 X,Y pos of 4 corners*
0 Add a 4 corners polygon primitive as box body*
4,1,4,$2,$3,$4,$5,$6,$7,$8,$9,$2,$3,0*
0 Add four circle primitives for the rounded corners*
1,1,$1+$1,$2,$3*
1,1,$1+$1,$4,$5*
1,1,$1+$1,$6,$7*
1,1,$1+$1,$8,$9*
0 Add four rect primitives between the rounded corners*
20,1,$1+$1,$2,$3,$4,$5,0*
20,1,$1+$1,$4,$5,$6,$7,0*
20,1,$1+$1,$6,$7,$8,$9,0*
20,1,$1+$1,$8,$9,$2,$3,0*%
G04 Aperture macros list end*
%TA.AperFunction,ComponentPad*%
%ADD10C,2.300000*%
%TD*%
%TA.AperFunction,ComponentPad*%
%ADD11C,4.400000*%
%TD*%
%TA.AperFunction,ComponentPad*%
%ADD12R,1.700000X1.700000*%
%TD*%
%TA.AperFunction,ComponentPad*%
%ADD13C,1.700000*%
%TD*%
%TA.AperFunction,ComponentPad*%
%ADD14R,2.000000X2.000000*%
%TD*%
%TA.AperFunction,ComponentPad*%
%ADD15O,2.000000X1.600000*%
%TD*%
%TA.AperFunction,ComponentPad*%
%ADD16RoundRect,0.250000X0.350000X0.625000X-0.350000X0.625000X-0.350000X-0.625000X0.350000X-0.625000X0*%
%TD*%
%TA.AperFunction,ComponentPad*%
%ADD17O,1.200000X1.750000*%
%TD*%
%TA.AperFunction,ViaPad*%
%ADD18C,0.600000*%
%TD*%
%TA.AperFunction,ViaPad*%
%ADD19C,0.300000*%
%TD*%
%TA.AperFunction,Conductor*%
%ADD20C,0.599440*%
%TD*%
%TA.AperFunction,Conductor*%
%ADD21C,0.200000*%
%TD*%
G04 APERTURE END LIST*
D10*
%TO.P,SW3,1,1_1*%
%TO.N,/UP_BTN*%
X144410000Y-104260000D03*
%TO.P,SW3,2,2_2*%
%TO.N,GND*%
X141870000Y-97910000D03*
%TD*%
%TO.P,SW1,1,1_1*%
%TO.N,/SNOOZE_BTN*%
X105660000Y-104260000D03*
%TO.P,SW1,2,2_2*%
%TO.N,GND*%
X103120000Y-97910000D03*
%TD*%
D11*
%TO.P,H2,1,1_1*%
%TO.N,GND*%
X199400000Y-87850000D03*
%TD*%
%TO.P,H3,1,1_1*%
%TO.N,GND*%
X198650000Y-117300000D03*
%TD*%
D12*
%TO.P,J1,1,Pin_1_1*%
%TO.N,GND*%
X99390000Y-88450000D03*
D13*
%TO.P,J1,2,Pin_2_2*%
%TO.N,+3.3V*%
X101930000Y-88450000D03*
%TO.P,J1,3,Pin_3_3*%
%TO.N,/SCRN_SCL*%
X104470000Y-88450000D03*
%TO.P,J1,4,Pin_4_4*%
%TO.N,/SCRN_SDA*%
X107010000Y-88450000D03*
%TO.P,J1,5,Pin_5_5*%
%TO.N,/SCRN_RST*%
X109550000Y-88450000D03*
%TO.P,J1,6,Pin_6_6*%
%TO.N,/SCRN_DC*%
X112090000Y-88450000D03*
%TO.P,J1,7,Pin_7_7*%
%TO.N,/SCRN_CS*%
X114630000Y-88450000D03*
%TO.P,J1,8,Pin_8_8*%
%TO.N,+3.3V*%
X117170000Y-88450000D03*
%TD*%
D11*
%TO.P,H1,1,1_1*%
%TO.N,GND*%
X65400000Y-117650000D03*
%TD*%
D10*
%TO.P,SW4,1,1_1*%
%TO.N,/DOWN_BTN*%
X163660000Y-104310000D03*
%TO.P,SW4,2,2_2*%
%TO.N,GND*%
X161120000Y-97960000D03*
%TD*%
%TO.P,SW2,1,1_1*%
%TO.N,/MODE_BTN*%
X125010000Y-104260000D03*
%TO.P,SW2,2,2_2*%
%TO.N,GND*%
X122470000Y-97910000D03*
%TD*%
%TO.P,SW5,1,1_1*%
%TO.N,/SELECT_BTN*%
X183100000Y-104260000D03*
%TO.P,SW5,2,2_2*%
%TO.N,GND*%
X180560000Y-97910000D03*
%TD*%
D14*
%TO.P,U1,1,EN_1*%
%TO.N,unconnected-(U1-EN-Pad1)*%
X68250000Y-93250000D03*
D15*
%TO.P,U1,2,D3_2*%
%TO.N,/UP_BTN*%
X68250000Y-95790000D03*
%TO.P,U1,3,D2_3*%
%TO.N,unconnected-(U1-D2-Pad3)*%
X68250000Y-98330000D03*
%TO.P,U1,4,D1_4*%
%TO.N,/MODE_BTN*%
X68250000Y-100870000D03*
%TO.P,U1,5,D0_5*%
%TO.N,/SNOOZE_BTN*%
X68250000Y-103410000D03*
%TO.P,U1,6,D4_6*%
%TO.N,/SCRN_SCL*%
X68250000Y-105950000D03*
%TO.P,U1,7,D5_7*%
%TO.N,/SCRN_DC*%
X68250000Y-108490000D03*
%TO.P,U1,8,3V3_8*%
%TO.N,+3.3V*%
X68250000Y-111030000D03*
%TO.P,U1,9,VBus_9*%
%TO.N,VBUS*%
X91110000Y-111030000D03*
%TO.P,U1,10,GND_10*%
%TO.N,GND*%
X91110000Y-108490000D03*
%TO.P,U1,11,D6_11*%
%TO.N,/SCRN_SDA*%
X91110000Y-105950000D03*
%TO.P,U1,12,D7_12*%
%TO.N,/SCRN_CS*%
X91110000Y-103410000D03*
%TO.P,U1,13,D8_13*%
%TO.N,/PIEZO_BUZZ_+*%
X91110000Y-100870000D03*
%TO.P,U1,14,D10_14*%
%TO.N,/SCRN_RST*%
X91110000Y-98330000D03*
%TO.P,U1,15,RX_15*%
%TO.N,/DOWN_BTN*%
X91110000Y-95790000D03*
%TO.P,U1,16,TX_16*%
%TO.N,/SELECT_BTN*%
X91110000Y-93250000D03*
%TD*%
D16*
%TO.P,J2,1,Pin_1_1*%
%TO.N,/PIEZO_BUZZ_+*%
X196250000Y-95400000D03*
D17*
%TO.P,J2,2,Pin_2_2*%
%TO.N,GND*%
X194250000Y-95400000D03*
%TD*%
D16*
%TO.P,J3,1,Pin_1_1*%
%TO.N,Net-(D1-A)*%
X196250000Y-101950000D03*
D17*
%TO.P,J3,2,Pin_2_2*%
%TO.N,GND*%
X194250000Y-101950000D03*
%TD*%
D18*
%TO.N,/SCRN_SDA*%
X105100000Y-93650000D03*
D19*
%TO.N,/SCRN_DC*%
X108700000Y-90400000D03*
D18*
%TO.N,GND*%
X98500000Y-107500000D03*
X96800000Y-89500000D03*
X114100000Y-97900000D03*
%TO.N,VBUS*%
X94400000Y-113250000D03*
X94750000Y-114450000D03*
%TO.N,/PIEZO_BUZZ_+*%
X103800000Y-109150000D03*
X96900000Y-101400000D03*
%TO.N,/SNOOZE_BTN*%
X72399265Y-107200735D03*
%TO.N,/MODE_BTN*%
X71650000Y-104250000D03*
%TO.N,/DOWN_BTN*%
X99950000Y-111250000D03*
%TO.N,/SELECT_BTN*%
X118700000Y-92400000D03*
X175900000Y-99600000D03*
X106400000Y-92050000D03*
%TO.N,/UP_BTN*%
X73250000Y-104700000D03*
X116100000Y-112250000D03*
%TD*%
%TO.N,+3.3V*%
D20*
X103630000Y-86750000D02*
X101930000Y-88450000D01*
X116400000Y-86750000D02*
X103630000Y-86750000D01*
X117170000Y-88450000D02*
X117170000Y-87520000D01*
X117170000Y-87520000D02*
X116400000Y-86750000D01*
%TO.N,/SCRN_SDA*%
D21*
X105100000Y-92250000D02*
X107010000Y-90340000D01*
X105100000Y-93650000D02*
X105100000Y-92250000D01*
X107010000Y-90340000D02*
X107010000Y-88450000D01*
%TO.N,/SCRN_DC*%
X108700000Y-90400000D02*
X110140000Y-90400000D01*
X110140000Y-90400000D02*
X112090000Y-88450000D01*
%TO.N,GND*%
D20*
X199400000Y-98900000D02*
X199250000Y-99050000D01*
X147653620Y-97960000D02*
X147543620Y-97850000D01*
X199400000Y-98900000D02*
X198825000Y-99475000D01*
X122473620Y-97906380D02*
X122470000Y-97910000D01*
X190206380Y-98800000D02*
X190206380Y-99106380D01*
X114100000Y-97900000D02*
X114110000Y-97910000D01*
X199400000Y-87850000D02*
X199400000Y-98900000D01*
X188856380Y-97450000D02*
X183712760Y-97450000D01*
X197100000Y-118850000D02*
X198650000Y-117300000D01*
X192712760Y-95400000D02*
X190206380Y-97906380D01*
X190206380Y-99106380D02*
X190575000Y-99475000D01*
X193050000Y-101950000D02*
X194250000Y-101950000D01*
X161170000Y-97910000D02*
X161120000Y-97960000D01*
X191775000Y-100675000D02*
X193050000Y-101950000D01*
X141930000Y-97850000D02*
X141870000Y-97910000D01*
X200750280Y-115199720D02*
X198650000Y-117300000D01*
X194250000Y-95400000D02*
X192712760Y-95400000D01*
X98500000Y-91200000D02*
X98500000Y-107500000D01*
X123350000Y-117650000D02*
X124550000Y-118850000D01*
X200750280Y-101400280D02*
X200750280Y-115199720D01*
X141866380Y-97906380D02*
X122473620Y-97906380D01*
X124550000Y-118850000D02*
X197100000Y-118850000D01*
X190206380Y-98800000D02*
X188856380Y-97450000D01*
X191775000Y-99475000D02*
X191775000Y-100675000D01*
X161120000Y-97960000D02*
X147653620Y-97960000D01*
X199250000Y-99050000D02*
X199250000Y-99900000D01*
X183712760Y-97450000D02*
X183252760Y-97910000D01*
X198825000Y-99475000D02*
X191775000Y-99475000D01*
X96800000Y-89500000D02*
X98500000Y-91200000D01*
X141870000Y-97910000D02*
X141866380Y-97906380D01*
X190575000Y-99475000D02*
X191775000Y-99475000D01*
X147543620Y-97850000D02*
X141930000Y-97850000D01*
X180560000Y-97910000D02*
X161170000Y-97910000D01*
X183252760Y-97910000D02*
X180560000Y-97910000D01*
X114110000Y-97910000D02*
X122470000Y-97910000D01*
X65400000Y-117650000D02*
X123350000Y-117650000D01*
X190206380Y-97906380D02*
X190206380Y-98800000D01*
X199250000Y-99900000D02*
X200750280Y-101400280D01*
%TO.N,VBUS*%
X94400000Y-113250000D02*
X94400000Y-114100000D01*
X94400000Y-114100000D02*
X94750000Y-114450000D01*
%TO.N,/PIEZO_BUZZ_+*%
D21*
X98415686Y-109150000D02*
X103800000Y-109150000D01*
X96900000Y-107634314D02*
X98415686Y-109150000D01*
X96900000Y-101400000D02*
X96900000Y-107634314D01*
%TO.N,/SNOOZE_BTN*%
X72399265Y-107200735D02*
X72399265Y-103399265D01*
X72090000Y-103410000D02*
X68250000Y-103410000D01*
X72250000Y-103250000D02*
X72090000Y-103410000D01*
X72399265Y-103399265D02*
X72250000Y-103250000D01*
%TO.N,/MODE_BTN*%
X117400000Y-112500000D02*
X120710000Y-109190000D01*
X116698529Y-112500000D02*
X117400000Y-112500000D01*
X116348529Y-112850000D02*
X116698529Y-112500000D01*
X86134315Y-109050000D02*
X89734315Y-112650000D01*
X89734315Y-112650000D02*
X94648529Y-112650000D01*
X94848529Y-112850000D02*
X116348529Y-112850000D01*
X74234315Y-109050000D02*
X86134315Y-109050000D01*
X122340000Y-104260000D02*
X125010000Y-104260000D01*
X120710000Y-109190000D02*
X120710000Y-105890000D01*
X72200000Y-107850000D02*
X73034315Y-107850000D01*
X94648529Y-112650000D02*
X94848529Y-112850000D01*
X73034315Y-107850000D02*
X74234315Y-109050000D01*
X120710000Y-105890000D02*
X122340000Y-104260000D01*
X71650000Y-107300000D02*
X72200000Y-107850000D01*
X125010000Y-104260000D02*
X124630000Y-104640000D01*
X71650000Y-104250000D02*
X71650000Y-107300000D01*
%TO.N,/DOWN_BTN*%
X99950000Y-111250000D02*
X96050000Y-107350000D01*
X96050000Y-99500000D02*
X92340000Y-95790000D01*
X96050000Y-107350000D02*
X96050000Y-99500000D01*
X92340000Y-95790000D02*
X91110000Y-95790000D01*
%TO.N,/SELECT_BTN*%
X182510000Y-104850000D02*
X177200000Y-104850000D01*
X177200000Y-100900000D02*
X175900000Y-99600000D01*
X177200000Y-104850000D02*
X177200000Y-100900000D01*
X106750000Y-92400000D02*
X106400000Y-92050000D01*
X118700000Y-92400000D02*
X106750000Y-92400000D01*
X183100000Y-104260000D02*
X182510000Y-104850000D01*
%TO.N,/UP_BTN*%
X74400000Y-108650000D02*
X86300000Y-108650000D01*
X89900000Y-112250000D02*
X116100000Y-112250000D01*
X73250000Y-107500000D02*
X74400000Y-108650000D01*
X86300000Y-108650000D02*
X89900000Y-112250000D01*
X73250000Y-104700000D02*
X73250000Y-107500000D01*
%TD*%
%TA.AperFunction,Conductor*%
%TO.N,GND*%
G36*
X92363309Y-96678390D02*
G01*
X92407656Y-96706891D01*
X95413181Y-99712416D01*
X95446666Y-99773739D01*
X95449500Y-99800097D01*
X95449500Y-107263330D01*
X95449499Y-107263348D01*
X95449499Y-107429054D01*
X95449498Y-107429054D01*
X95490424Y-107581789D01*
X95490425Y-107581790D01*
X95509832Y-107615403D01*
X95509833Y-107615404D01*
X95569477Y-107718712D01*
X95569481Y-107718717D01*
X95688349Y-107837585D01*
X95688355Y-107837590D01*
X99115425Y-111264660D01*
X99124284Y-111280885D01*
X99137216Y-111294101D01*
X99147982Y-111324284D01*
X99148910Y-111325983D01*
X99149190Y-111327302D01*
X99149500Y-111328805D01*
X99149500Y-111328842D01*
X99180263Y-111483497D01*
X99182513Y-111488930D01*
X99184891Y-111500461D01*
X99182954Y-111523940D01*
X99185503Y-111547359D01*
X99180136Y-111558113D01*
X99179149Y-111570094D01*
X99164825Y-111588799D01*
X99154309Y-111609878D01*
X99143980Y-111616024D01*
X99136672Y-111625569D01*
X99114508Y-111633562D01*
X99094266Y-111645608D01*
X99074018Y-111648164D01*
X99070946Y-111649273D01*
X99068918Y-111648808D01*
X99063445Y-111649500D01*
X92646810Y-111649500D01*
X92579771Y-111629815D01*
X92534016Y-111577011D01*
X92524072Y-111507853D01*
X92528879Y-111487182D01*
X92578476Y-111334538D01*
X92578476Y-111334537D01*
X92578477Y-111334534D01*
X92610500Y-111132352D01*
X92610500Y-110927648D01*
X92578477Y-110725466D01*
X92578476Y-110725464D01*
X92515218Y-110530776D01*
X92456443Y-110415425D01*
X92422287Y-110348390D01*
X92414556Y-110337749D01*
X92301971Y-110182786D01*
X92157213Y-110038028D01*
X91991611Y-109917713D01*
X91898369Y-109870203D01*
X91847574Y-109822229D01*
X91830779Y-109754407D01*
X91853317Y-109688273D01*
X91898371Y-109649234D01*
X91991347Y-109601861D01*
X92156894Y-109481582D01*
X92156895Y-109481582D01*
X92301582Y-109336895D01*
X92301582Y-109336894D01*
X92421859Y-109171349D01*
X92514755Y-108989029D01*
X92577990Y-108794413D01*
X92586609Y-108740000D01*
X91485278Y-108740000D01*
X91529333Y-108663694D01*
X91560000Y-108549244D01*
X91560000Y-108430756D01*
X91529333Y-108316306D01*
X91485278Y-108240000D01*
X92586609Y-108240000D01*
X92577990Y-108185586D01*
X92514755Y-107990970D01*
X92421859Y-107808650D01*
X92301582Y-107643105D01*
X92301582Y-107643104D01*
X92156895Y-107498417D01*
X91991349Y-107378140D01*
X91898370Y-107330765D01*
X91847574Y-107282790D01*
X91830779Y-107214969D01*
X91853316Y-107148835D01*
X91898370Y-107109795D01*
X91898920Y-107109515D01*
X91991610Y-107062287D01*
X92012770Y-107046913D01*
X92157213Y-106941971D01*
X92157215Y-106941968D01*
X92157219Y-106941966D01*
X92301966Y-106797219D01*
X92301968Y-106797215D01*
X92301971Y-106797213D01*
X92388739Y-106677785D01*
X92422287Y-106631610D01*
X92515220Y-106449219D01*
X92578477Y-106254534D01*
X92610500Y-106052352D01*
X92610500Y-105847648D01*
X92578477Y-105645466D01*
X92515220Y-105450781D01*
X92515218Y-105450778D01*
X92515218Y-105450776D01*
X92456341Y-105335225D01*
X92422287Y-105268390D01*
X92380500Y-105210874D01*
X92301971Y-105102786D01*
X92157213Y-104958028D01*
X91991614Y-104837715D01*
X91911280Y-104796783D01*
X91898917Y-104790483D01*
X91848123Y-104742511D01*
X91831328Y-104674690D01*
X91853865Y-104608555D01*
X91898917Y-104569516D01*
X91991610Y-104522287D01*
X92040238Y-104486957D01*
X92157213Y-104401971D01*
X92157215Y-104401968D01*
X92157219Y-104401966D01*
X92301966Y-104257219D01*
X92301968Y-104257215D01*
X92301971Y-104257213D01*
X92373551Y-104158690D01*
X92422287Y-104091610D01*
X92515220Y-103909219D01*
X92578477Y-103714534D01*
X92610500Y-103512352D01*
X92610500Y-103307648D01*
X92591038Y-103184771D01*
X92578477Y-103105465D01*
X92534398Y-102969804D01*
X92515220Y-102910781D01*
X92515218Y-102910778D01*
X92515218Y-102910776D01*
X92481503Y-102844607D01*
X92422287Y-102728390D01*
X92364970Y-102649499D01*
X92301971Y-102562786D01*
X92157213Y-102418028D01*
X91991614Y-102297715D01*
X91985006Y-102294348D01*
X91898917Y-102250483D01*
X91848123Y-102202511D01*
X91831328Y-102134690D01*
X91853865Y-102068555D01*
X91898917Y-102029516D01*
X91991610Y-101982287D01*
X92012770Y-101966913D01*
X92157213Y-101861971D01*
X92157215Y-101861968D01*
X92157219Y-101861966D01*
X92301966Y-101717219D01*
X92301968Y-101717215D01*
X92301971Y-101717213D01*
X92405293Y-101575000D01*
X92422287Y-101551610D01*
X92515220Y-101369219D01*
X92578477Y-101174534D01*
X92610500Y-100972352D01*
X92610500Y-100767648D01*
X92578477Y-100565465D01*
X92549127Y-100475137D01*
X92515220Y-100370781D01*
X92515218Y-100370778D01*
X92515218Y-100370776D01*
X92480624Y-100302883D01*
X92422287Y-100188390D01*
X92414556Y-100177749D01*
X92301971Y-100022786D01*
X92157213Y-99878028D01*
X91991614Y-99757715D01*
X91973990Y-99748735D01*
X91898917Y-99710483D01*
X91848123Y-99662511D01*
X91831328Y-99594690D01*
X91853865Y-99528555D01*
X91898917Y-99489516D01*
X91991610Y-99442287D01*
X92035693Y-99410259D01*
X92157213Y-99321971D01*
X92157215Y-99321968D01*
X92157219Y-99321966D01*
X92301966Y-99177219D01*
X92301968Y-99177215D01*
X92301971Y-99177213D01*
X92365547Y-99089707D01*
X92422287Y-99011610D01*
X92515220Y-98829219D01*
X92578477Y-98634534D01*
X92610500Y-98432352D01*
X92610500Y-98227648D01*
X92578477Y-98025466D01*
X92557205Y-97959999D01*
X92540959Y-97909999D01*
X92515220Y-97830781D01*
X92515218Y-97830778D01*
X92515218Y-97830776D01*
X92481503Y-97764607D01*
X92422287Y-97648390D01*
X92391813Y-97606446D01*
X92301971Y-97482786D01*
X92157213Y-97338028D01*
X91991614Y-97217715D01*
X91952921Y-97198000D01*
X91898917Y-97170483D01*
X91848123Y-97122511D01*
X91831328Y-97054690D01*
X91853865Y-96988555D01*
X91898917Y-96949516D01*
X91991610Y-96902287D01*
X92012770Y-96886913D01*
X92157213Y-96781971D01*
X92157215Y-96781968D01*
X92157219Y-96781966D01*
X92232294Y-96706891D01*
X92293617Y-96673406D01*
X92363309Y-96678390D01*
G37*
%TD.AperFunction*%
%TA.AperFunction,Conductor*%
G36*
X201014042Y-84850765D02*
G01*
X201036774Y-84852254D01*
X201268114Y-84867417D01*
X201284172Y-84869532D01*
X201529888Y-84918408D01*
X201545554Y-84922606D01*
X201696736Y-84973925D01*
X201782788Y-85003136D01*
X201797765Y-85009339D01*
X202015336Y-85116633D01*
X202022460Y-85120146D01*
X202036508Y-85128256D01*
X202244815Y-85267443D01*
X202257679Y-85277314D01*
X202446033Y-85442497D01*
X202457502Y-85453966D01*
X202622685Y-85642320D01*
X202632559Y-85655188D01*
X202771743Y-85863492D01*
X202779853Y-85877539D01*
X202890657Y-86102227D01*
X202896864Y-86117213D01*
X202977393Y-86354445D01*
X202981591Y-86370111D01*
X203030465Y-86615813D01*
X203032583Y-86631895D01*
X203049235Y-86885956D01*
X203049500Y-86894066D01*
X203049500Y-118855933D01*
X203049235Y-118864043D01*
X203032583Y-119118104D01*
X203030465Y-119134186D01*
X202981591Y-119379888D01*
X202977393Y-119395554D01*
X202896864Y-119632786D01*
X202890657Y-119647772D01*
X202779853Y-119872460D01*
X202771743Y-119886507D01*
X202632559Y-120094811D01*
X202622685Y-120107679D01*
X202457502Y-120296033D01*
X202446033Y-120307502D01*
X202257679Y-120472685D01*
X202244811Y-120482559D01*
X202036507Y-120621743D01*
X202022460Y-120629853D01*
X201797772Y-120740657D01*
X201782786Y-120746864D01*
X201545554Y-120827393D01*
X201529888Y-120831591D01*
X201284186Y-120880465D01*
X201268104Y-120882583D01*
X201014043Y-120899235D01*
X201005933Y-120899500D01*
X64444067Y-120899500D01*
X64435957Y-120899235D01*
X64181895Y-120882583D01*
X64165814Y-120880465D01*
X64130770Y-120873494D01*
X63920111Y-120831591D01*
X63904445Y-120827393D01*
X63667213Y-120746864D01*
X63652227Y-120740657D01*
X63427539Y-120629853D01*
X63413492Y-120621743D01*
X63205188Y-120482559D01*
X63192320Y-120472685D01*
X63003966Y-120307502D01*
X62992497Y-120296033D01*
X62827314Y-120107679D01*
X62817440Y-120094811D01*
X62678256Y-119886507D01*
X62670146Y-119872460D01*
X62559464Y-119648019D01*
X62559339Y-119647765D01*
X62553135Y-119632786D01*
X62472606Y-119395554D01*
X62468408Y-119379888D01*
X62459736Y-119336292D01*
X62419532Y-119134172D01*
X62417417Y-119118114D01*
X62400765Y-118864042D01*
X62400500Y-118855933D01*
X62400500Y-92202135D01*
X66749500Y-92202135D01*
X66749500Y-94297870D01*
X66749501Y-94297876D01*
X66755908Y-94357483D01*
X66806202Y-94492328D01*
X66806206Y-94492335D01*
X66892452Y-94607544D01*
X66892455Y-94607547D01*
X67007664Y-94693793D01*
X67007673Y-94693798D01*
X67044914Y-94707688D01*
X67100848Y-94749559D01*
X67125266Y-94815023D01*
X67110415Y-94883296D01*
X67089265Y-94911550D01*
X67058027Y-94942787D01*
X66937715Y-95108386D01*
X66844781Y-95290776D01*
X66781522Y-95485465D01*
X66749500Y-95687648D01*
X66749500Y-95892351D01*
X66781522Y-96094534D01*
X66844781Y-96289223D01*
X66892367Y-96382614D01*
X66935764Y-96467785D01*
X66937715Y-96471613D01*
X67058028Y-96637213D01*
X67202786Y-96781971D01*
X67357749Y-96894556D01*
X67368390Y-96902287D01*
X67429659Y-96933505D01*
X67461080Y-96949515D01*
X67511876Y-96997490D01*
X67528671Y-97065311D01*
X67506134Y-97131446D01*
X67461080Y-97170485D01*
X67368386Y-97217715D01*
X67202786Y-97338028D01*
X67058028Y-97482786D01*
X66937715Y-97648386D01*
X66844781Y-97830776D01*
X66781522Y-98025465D01*
X66749500Y-98227648D01*
X66749500Y-98432351D01*
X66781522Y-98634534D01*
X66844781Y-98829223D01*
X66899438Y-98936492D01*
X66920696Y-98978213D01*
X66937715Y-99011613D01*
X67058028Y-99177213D01*
X67202786Y-99321971D01*
X67339008Y-99420940D01*
X67368390Y-99442287D01*
X67459840Y-99488883D01*
X67461080Y-99489515D01*
X67511876Y-99537490D01*
X67528671Y-99605311D01*
X67506134Y-99671446D01*
X67461080Y-99710485D01*
X67368386Y-99757715D01*
X67202786Y-99878028D01*
X67058028Y-100022786D01*
X66937715Y-100188386D01*
X66844781Y-100370776D01*
X66781522Y-100565465D01*
X66749500Y-100767648D01*
X66749500Y-100972351D01*
X66781522Y-101174534D01*
X66844781Y-101369223D01*
X66937715Y-101551613D01*
X67058028Y-101717213D01*
X67202786Y-101861971D01*
X67357749Y-101974556D01*
X67368390Y-101982287D01*
X67459840Y-102028883D01*
X67461080Y-102029515D01*
X67511876Y-102077490D01*
X67528671Y-102145311D01*
X67506134Y-102211446D01*
X67461080Y-102250485D01*
X67368386Y-102297715D01*
X67202786Y-102418028D01*
X67058028Y-102562786D01*
X66937715Y-102728386D01*
X66844781Y-102910776D01*
X66781522Y-103105465D01*
X66749500Y-103307648D01*
X66749500Y-103512351D01*
X66781522Y-103714534D01*
X66844781Y-103909223D01*
X66886250Y-103990609D01*
X66933320Y-104082989D01*
X66937715Y-104091613D01*
X67058028Y-104257213D01*
X67202786Y-104401971D01*
X67319762Y-104486957D01*
X67368390Y-104522287D01*
X67456902Y-104567386D01*
X67461080Y-104569515D01*
X67511876Y-104617490D01*
X67528671Y-104685311D01*
X67506134Y-104751446D01*
X67461080Y-104790485D01*
X67368386Y-104837715D01*
X67202786Y-104958028D01*
X67058028Y-105102786D01*
X66937715Y-105268386D01*
X66844781Y-105450776D01*
X66781522Y-105645465D01*
X66749500Y-105847648D01*
X66749500Y-106052351D01*
X66781522Y-106254534D01*
X66844781Y-106449223D01*
X66892367Y-106542614D01*
X66935764Y-106627785D01*
X66937715Y-106631613D01*
X67058028Y-106797213D01*
X67202786Y-106941971D01*
X67357749Y-107054556D01*
X67368390Y-107062287D01*
X67459840Y-107108883D01*
X67461080Y-107109515D01*
X67511876Y-107157490D01*
X67528671Y-107225311D01*
X67506134Y-107291446D01*
X67461080Y-107330485D01*
X67368386Y-107377715D01*
X67202786Y-107498028D01*
X67058028Y-107642786D01*
X66937715Y-107808386D01*
X66844781Y-107990776D01*
X66781522Y-108185465D01*
X66749500Y-108387648D01*
X66749500Y-108592351D01*
X66781522Y-108794534D01*
X66844781Y-108989223D01*
X66937715Y-109171613D01*
X67058028Y-109337213D01*
X67202786Y-109481971D01*
X67357749Y-109594556D01*
X67368390Y-109602287D01*
X67459840Y-109648883D01*
X67461080Y-109649515D01*
X67511876Y-109697490D01*
X67528671Y-109765311D01*
X67506134Y-109831446D01*
X67461080Y-109870485D01*
X67368386Y-109917715D01*
X67202786Y-110038028D01*
X67058028Y-110182786D01*
X66937715Y-110348386D01*
X66844781Y-110530776D01*
X66781522Y-110725465D01*
X66749500Y-110927648D01*
X66749500Y-111132351D01*
X66781522Y-111334534D01*
X66844781Y-111529223D01*
X66937715Y-111711613D01*
X67058028Y-111877213D01*
X67202786Y-112021971D01*
X67357749Y-112134556D01*
X67368390Y-112142287D01*
X67484607Y-112201503D01*
X67550776Y-112235218D01*
X67550778Y-112235218D01*
X67550781Y-112235220D01*
X67655137Y-112269127D01*
X67745465Y-112298477D01*
X67846557Y-112314488D01*
X67947648Y-112330500D01*
X67947649Y-112330500D01*
X68552351Y-112330500D01*
X68552352Y-112330500D01*
X68754534Y-112298477D01*
X68949219Y-112235220D01*
X69131610Y-112142287D01*
X69224590Y-112074732D01*
X69297213Y-112021971D01*
X69297215Y-112021968D01*
X69297219Y-112021966D01*
X69441966Y-111877219D01*
X69441968Y-111877215D01*
X69441971Y-111877213D01*
X69494732Y-111804590D01*
X69562287Y-111711610D01*
X69655220Y-111529219D01*
X69718477Y-111334534D01*
X69750500Y-111132352D01*
X69750500Y-110927648D01*
X69718477Y-110725466D01*
X69718476Y-110725464D01*
X69655218Y-110530776D01*
X69596443Y-110415425D01*
X69562287Y-110348390D01*
X69554556Y-110337749D01*
X69441971Y-110182786D01*
X69297213Y-110038028D01*
X69131614Y-109917715D01*
X69098530Y-109900858D01*
X69038917Y-109870483D01*
X68988123Y-109822511D01*
X68971328Y-109754690D01*
X68993865Y-109688555D01*
X69038917Y-109649516D01*
X69131610Y-109602287D01*
X69161406Y-109580639D01*
X69297213Y-109481971D01*
X69297215Y-109481968D01*
X69297219Y-109481966D01*
X69441966Y-109337219D01*
X69441968Y-109337215D01*
X69441971Y-109337213D01*
X69520706Y-109228842D01*
X69562287Y-109171610D01*
X69655220Y-108989219D01*
X69718477Y-108794534D01*
X69750500Y-108592352D01*
X69750500Y-108387648D01*
X69733653Y-108281284D01*
X69718477Y-108185465D01*
X69687596Y-108090423D01*
X69655220Y-107990781D01*
X69655218Y-107990778D01*
X69655218Y-107990776D01*
X69621503Y-107924607D01*
X69562287Y-107808390D01*
X69542039Y-107780521D01*
X69441971Y-107642786D01*
X69297213Y-107498028D01*
X69131614Y-107377715D01*
X69046242Y-107334216D01*
X69038917Y-107330483D01*
X68988123Y-107282511D01*
X68971328Y-107214690D01*
X68993865Y-107148555D01*
X69038917Y-107109516D01*
X69131610Y-107062287D01*
X69152770Y-107046913D01*
X69297213Y-106941971D01*
X69297215Y-106941968D01*
X69297219Y-106941966D01*
X69441966Y-106797219D01*
X69441968Y-106797215D01*
X69441971Y-106797213D01*
X69528739Y-106677785D01*
X69562287Y-106631610D01*
X69655220Y-106449219D01*
X69718477Y-106254534D01*
X69750500Y-106052352D01*
X69750500Y-105847648D01*
X69718477Y-105645466D01*
X69655220Y-105450781D01*
X69655218Y-105450778D01*
X69655218Y-105450776D01*
X69596341Y-105335225D01*
X69562287Y-105268390D01*
X69520500Y-105210874D01*
X69441971Y-105102786D01*
X69297213Y-104958028D01*
X69131614Y-104837715D01*
X69051280Y-104796783D01*
X69038917Y-104790483D01*
X68988123Y-104742511D01*
X68971328Y-104674690D01*
X68993865Y-104608555D01*
X69038917Y-104569516D01*
X69131610Y-104522287D01*
X69180238Y-104486957D01*
X69297213Y-104401971D01*
X69297215Y-104401968D01*
X69297219Y-104401966D01*
X69441966Y-104257219D01*
X69441968Y-104257215D01*
X69441971Y-104257213D01*
X69562284Y-104091614D01*
X69562285Y-104091613D01*
X69562287Y-104091610D01*
X69569117Y-104078204D01*
X69617091Y-104027409D01*
X69679602Y-104010500D01*
X70730362Y-104010500D01*
X70797401Y-104030185D01*
X70843156Y-104082989D01*
X70853100Y-104152147D01*
X70851980Y-104158690D01*
X70849500Y-104171158D01*
X70849500Y-104328846D01*
X70880261Y-104483489D01*
X70880264Y-104483501D01*
X70940602Y-104629172D01*
X70940609Y-104629185D01*
X71028602Y-104760874D01*
X71049480Y-104827551D01*
X71049500Y-104829765D01*
X71049500Y-107213330D01*
X71049499Y-107213348D01*
X71049499Y-107379054D01*
X71049498Y-107379054D01*
X71090423Y-107531786D01*
X71103973Y-107555253D01*
X71103974Y-107555258D01*
X71103976Y-107555258D01*
X71154693Y-107643104D01*
X71169479Y-107668714D01*
X71169481Y-107668717D01*
X71288349Y-107787585D01*
X71288355Y-107787590D01*
X71715139Y-108214374D01*
X71715149Y-108214385D01*
X71719479Y-108218715D01*
X71719480Y-108218716D01*
X71831284Y-108330520D01*
X71831286Y-108330521D01*
X71831290Y-108330524D01*
X71968209Y-108409573D01*
X71968216Y-108409577D01*
X72080019Y-108439534D01*
X72120942Y-108450500D01*
X72120943Y-108450500D01*
X72734218Y-108450500D01*
X72801257Y-108470185D01*
X72821899Y-108486819D01*
X73749454Y-109414374D01*
X73749464Y-109414385D01*
X73753794Y-109418715D01*
X73753795Y-109418716D01*
X73865599Y-109530520D01*
X73914439Y-109558717D01*
X73952410Y-109580639D01*
X73952412Y-109580641D01*
X74002528Y-109609576D01*
X74002530Y-109609577D01*
X74155257Y-109650500D01*
X74155258Y-109650500D01*
X85834218Y-109650500D01*
X85901257Y-109670185D01*
X85921899Y-109686819D01*
X89249454Y-113014374D01*
X89249464Y-113014385D01*
X89253794Y-113018715D01*
X89253795Y-113018716D01*
X89365599Y-113130520D01*
X89452410Y-113180639D01*
X89452412Y-113180641D01*
X89490466Y-113202611D01*
X89502530Y-113209577D01*
X89655258Y-113250501D01*
X89655261Y-113250501D01*
X89820968Y-113250501D01*
X89820984Y-113250500D01*
X93475780Y-113250500D01*
X93542819Y-113270185D01*
X93588574Y-113322989D01*
X93599780Y-113374500D01*
X93599780Y-114016049D01*
X93599779Y-114016075D01*
X93599779Y-114021185D01*
X93599779Y-114178815D01*
X93599779Y-114178817D01*
X93599778Y-114178817D01*
X93630530Y-114333410D01*
X93630532Y-114333416D01*
X93690854Y-114479048D01*
X93778426Y-114610109D01*
X93778432Y-114610116D01*
X93894208Y-114725892D01*
X93894230Y-114725912D01*
X94122092Y-114953774D01*
X94125923Y-114958000D01*
X94128209Y-114960286D01*
X94128211Y-114960289D01*
X94239708Y-115071786D01*
X94239712Y-115071790D01*
X94370814Y-115159390D01*
X94370827Y-115159397D01*
X94516498Y-115219735D01*
X94516503Y-115219737D01*
X94671153Y-115250499D01*
X94671156Y-115250500D01*
X94671158Y-115250500D01*
X94828844Y-115250500D01*
X94828845Y-115250499D01*
X94983497Y-115219737D01*
X95129179Y-115159394D01*
X95260289Y-115071789D01*
X95371789Y-114960289D01*
X95459394Y-114829179D01*
X95519737Y-114683497D01*
X95550500Y-114528842D01*
X95550500Y-114371158D01*
X95550500Y-114371155D01*
X95550499Y-114371153D01*
X95519737Y-114216503D01*
X95504126Y-114178815D01*
X95459397Y-114070827D01*
X95459390Y-114070814D01*
X95371790Y-113939712D01*
X95371789Y-113939711D01*
X95260289Y-113828211D01*
X95260286Y-113828209D01*
X95258000Y-113825923D01*
X95253774Y-113822092D01*
X95236539Y-113804857D01*
X95203054Y-113743534D01*
X95200220Y-113717176D01*
X95200220Y-113574500D01*
X95219905Y-113507461D01*
X95272709Y-113461706D01*
X95324220Y-113450500D01*
X116261860Y-113450500D01*
X116261876Y-113450501D01*
X116269472Y-113450501D01*
X116427583Y-113450501D01*
X116427586Y-113450501D01*
X116580314Y-113409577D01*
X116630433Y-113380639D01*
X116717245Y-113330520D01*
X116829049Y-113218716D01*
X116829050Y-113218714D01*
X116910947Y-113136816D01*
X116972269Y-113103334D01*
X116998626Y-113100500D01*
X117313331Y-113100500D01*
X117313347Y-113100501D01*
X117320943Y-113100501D01*
X117479054Y-113100501D01*
X117479057Y-113100501D01*
X117631785Y-113059577D01*
X117681904Y-113030639D01*
X117768716Y-112980520D01*
X117880520Y-112868716D01*
X117880520Y-112868714D01*
X117890728Y-112858507D01*
X117890730Y-112858504D01*
X121068506Y-109680728D01*
X121068511Y-109680724D01*
X121078714Y-109670520D01*
X121078716Y-109670520D01*
X121190520Y-109558716D01*
X121248595Y-109458127D01*
X121269577Y-109421785D01*
X121310501Y-109269057D01*
X121310501Y-109110943D01*
X121310501Y-109103348D01*
X121310500Y-109103330D01*
X121310500Y-106190097D01*
X121330185Y-106123058D01*
X121346819Y-106102416D01*
X122552416Y-104896819D01*
X122613739Y-104863334D01*
X122640097Y-104860500D01*
X123387583Y-104860500D01*
X123454622Y-104880185D01*
X123498066Y-104928203D01*
X123598366Y-105125051D01*
X123598368Y-105125054D01*
X123702505Y-105268386D01*
X123751069Y-105335229D01*
X123934771Y-105518931D01*
X124144949Y-105671634D01*
X124292445Y-105746787D01*
X124376423Y-105789577D01*
X124376425Y-105789577D01*
X124376428Y-105789579D01*
X124623507Y-105869860D01*
X124755706Y-105890797D01*
X124880098Y-105910500D01*
X124880103Y-105910500D01*
X125139902Y-105910500D01*
X125253298Y-105892539D01*
X125396493Y-105869860D01*
X125643572Y-105789579D01*
X125875051Y-105671634D01*
X126085229Y-105518931D01*
X126212819Y-105391341D01*
X126274142Y-105357856D01*
X126343834Y-105362840D01*
X126399767Y-105404712D01*
X126424184Y-105470176D01*
X126424500Y-105479022D01*
X126424500Y-105618579D01*
X126428759Y-105645466D01*
X126452214Y-105793556D01*
X126506956Y-105962039D01*
X126506957Y-105962042D01*
X126587386Y-106119890D01*
X126691517Y-106263214D01*
X126816786Y-106388483D01*
X126960110Y-106492614D01*
X127037529Y-106532061D01*
X127117957Y-106573042D01*
X127117960Y-106573043D01*
X127202201Y-106600414D01*
X127286445Y-106627786D01*
X127461421Y-106655500D01*
X127461422Y-106655500D01*
X127638578Y-106655500D01*
X127638579Y-106655500D01*
X127813555Y-106627786D01*
X127982042Y-106573042D01*
X128139890Y-106492614D01*
X128283214Y-106388483D01*
X128408483Y-106263214D01*
X128512614Y-106119890D01*
X128593042Y-105962042D01*
X128647786Y-105793555D01*
X128675500Y-105618579D01*
X128675500Y-105441421D01*
X128647786Y-105266445D01*
X128618091Y-105175051D01*
X128593043Y-105097960D01*
X128593042Y-105097957D01*
X128538090Y-104990109D01*
X128512614Y-104940110D01*
X128408483Y-104796786D01*
X128283214Y-104671517D01*
X128139890Y-104567386D01*
X128104907Y-104549561D01*
X127982042Y-104486957D01*
X127982039Y-104486956D01*
X127813556Y-104432214D01*
X127726067Y-104418357D01*
X127638579Y-104404500D01*
X127461421Y-104404500D01*
X127403095Y-104413738D01*
X127286443Y-104432214D01*
X127117960Y-104486956D01*
X127117957Y-104486957D01*
X126960106Y-104567388D01*
X126831962Y-104660490D01*
X126766156Y-104683970D01*
X126698102Y-104668144D01*
X126649407Y-104618039D01*
X126635532Y-104549561D01*
X126636604Y-104540774D01*
X126660500Y-104389902D01*
X126660500Y-104130097D01*
X142759500Y-104130097D01*
X142759500Y-104389902D01*
X142800140Y-104646493D01*
X142880422Y-104893576D01*
X142961534Y-105052764D01*
X142987021Y-105102786D01*
X142998368Y-105125054D01*
X143102505Y-105268386D01*
X143151069Y-105335229D01*
X143334771Y-105518931D01*
X143544949Y-105671634D01*
X143692445Y-105746787D01*
X143776423Y-105789577D01*
X143776425Y-105789577D01*
X143776428Y-105789579D01*
X144023507Y-105869860D01*
X144155706Y-105890797D01*
X144280098Y-105910500D01*
X144280103Y-105910500D01*
X144539902Y-105910500D01*
X144653298Y-105892539D01*
X144796493Y-105869860D01*
X145043572Y-105789579D01*
X145275051Y-105671634D01*
X145485229Y-105518931D01*
X145612819Y-105391341D01*
X145674142Y-105357856D01*
X145743834Y-105362840D01*
X145799767Y-105404712D01*
X145824184Y-105470176D01*
X145824500Y-105479022D01*
X145824500Y-105618579D01*
X145828759Y-105645466D01*
X145852214Y-105793556D01*
X145906956Y-105962039D01*
X145906957Y-105962042D01*
X145987386Y-106119890D01*
X146091517Y-106263214D01*
X146216786Y-106388483D01*
X146360110Y-106492614D01*
X146437529Y-106532061D01*
X146517957Y-106573042D01*
X146517960Y-106573043D01*
X146602201Y-106600414D01*
X146686445Y-106627786D01*
X146861421Y-106655500D01*
X146861422Y-106655500D01*
X147038578Y-106655500D01*
X147038579Y-106655500D01*
X147213555Y-106627786D01*
X147382042Y-106573042D01*
X147539890Y-106492614D01*
X147683214Y-106388483D01*
X147808483Y-106263214D01*
X147912614Y-106119890D01*
X147993042Y-105962042D01*
X148047786Y-105793555D01*
X148075500Y-105618579D01*
X148075500Y-105441421D01*
X148047786Y-105266445D01*
X148018091Y-105175051D01*
X147993043Y-105097960D01*
X147993042Y-105097957D01*
X147938090Y-104990109D01*
X147912614Y-104940110D01*
X147808483Y-104796786D01*
X147683214Y-104671517D01*
X147539890Y-104567386D01*
X147504907Y-104549561D01*
X147382042Y-104486957D01*
X147382039Y-104486956D01*
X147213556Y-104432214D01*
X147126067Y-104418357D01*
X147038579Y-104404500D01*
X146861421Y-104404500D01*
X146803095Y-104413738D01*
X146686443Y-104432214D01*
X146517960Y-104486956D01*
X146517957Y-104486957D01*
X146360106Y-104567388D01*
X146231962Y-104660490D01*
X146166156Y-104683970D01*
X146098102Y-104668144D01*
X146049407Y-104618039D01*
X146035532Y-104549561D01*
X146036604Y-104540774D01*
X146060500Y-104389902D01*
X146060500Y-104180097D01*
X162009500Y-104180097D01*
X162009500Y-104439902D01*
X162050140Y-104696493D01*
X162130422Y-104943576D01*
X162200843Y-105081783D01*
X162234562Y-105147960D01*
X162248368Y-105175054D01*
X162364739Y-105335225D01*
X162401069Y-105385229D01*
X162584771Y-105568931D01*
X162794949Y-105721634D01*
X162928294Y-105789577D01*
X163026423Y-105839577D01*
X163026425Y-105839577D01*
X163026428Y-105839579D01*
X163273507Y-105919860D01*
X163405706Y-105940797D01*
X163530098Y-105960500D01*
X163530103Y-105960500D01*
X163789902Y-105960500D01*
X163903298Y-105942539D01*
X164046493Y-105919860D01*
X164293572Y-105839579D01*
X164525051Y-105721634D01*
X164735229Y-105568931D01*
X164862819Y-105441341D01*
X164924142Y-105407856D01*
X164993834Y-105412840D01*
X165049767Y-105454712D01*
X165074184Y-105520176D01*
X165074500Y-105529022D01*
X165074500Y-105668579D01*
X165074984Y-105671634D01*
X165102214Y-105843556D01*
X165156956Y-106012039D01*
X165156957Y-106012042D01*
X165237386Y-106169890D01*
X165341517Y-106313214D01*
X165466786Y-106438483D01*
X165610110Y-106542614D01*
X165669828Y-106573042D01*
X165767957Y-106623042D01*
X165767960Y-106623043D01*
X165852201Y-106650414D01*
X165936445Y-106677786D01*
X166111421Y-106705500D01*
X166111422Y-106705500D01*
X166288578Y-106705500D01*
X166288579Y-106705500D01*
X166463555Y-106677786D01*
X166632042Y-106623042D01*
X166789890Y-106542614D01*
X166933214Y-106438483D01*
X167058483Y-106313214D01*
X167162614Y-106169890D01*
X167243042Y-106012042D01*
X167297786Y-105843555D01*
X167325500Y-105668579D01*
X167325500Y-105491421D01*
X167297786Y-105316445D01*
X167243042Y-105147958D01*
X167243042Y-105147957D01*
X167162613Y-104990109D01*
X167139309Y-104958034D01*
X167058483Y-104846786D01*
X166933214Y-104721517D01*
X166789890Y-104617386D01*
X166754907Y-104599561D01*
X166632042Y-104536957D01*
X166632039Y-104536956D01*
X166463556Y-104482214D01*
X166364406Y-104466510D01*
X166288579Y-104454500D01*
X166111421Y-104454500D01*
X166053095Y-104463738D01*
X165936443Y-104482214D01*
X165767960Y-104536956D01*
X165767957Y-104536957D01*
X165610106Y-104617388D01*
X165481962Y-104710490D01*
X165416156Y-104733970D01*
X165348102Y-104718144D01*
X165299407Y-104668039D01*
X165285532Y-104599561D01*
X165286604Y-104590774D01*
X165310500Y-104439902D01*
X165310500Y-104180097D01*
X165283638Y-104010500D01*
X165269860Y-103923507D01*
X165189579Y-103676428D01*
X165189577Y-103676425D01*
X165189577Y-103676423D01*
X165146456Y-103591795D01*
X165071634Y-103444949D01*
X164918931Y-103234771D01*
X164735229Y-103051069D01*
X164725026Y-103043656D01*
X164525054Y-102898368D01*
X164525053Y-102898367D01*
X164525051Y-102898366D01*
X164426921Y-102848366D01*
X164293576Y-102780422D01*
X164046493Y-102700140D01*
X163789902Y-102659500D01*
X163789897Y-102659500D01*
X163530103Y-102659500D01*
X163530098Y-102659500D01*
X163273506Y-102700140D01*
X163026423Y-102780422D01*
X162794945Y-102898368D01*
X162584774Y-103051066D01*
X162584768Y-103051071D01*
X162401071Y-103234768D01*
X162401066Y-103234774D01*
X162248368Y-103444945D01*
X162130422Y-103676423D01*
X162050140Y-103923506D01*
X162009500Y-104180097D01*
X146060500Y-104180097D01*
X146060500Y-104130097D01*
X146028849Y-103930263D01*
X146019860Y-103873507D01*
X145939579Y-103626428D01*
X145939577Y-103626425D01*
X145939577Y-103626423D01*
X145881454Y-103512352D01*
X145821634Y-103394949D01*
X145668931Y-103184771D01*
X145485229Y-103001069D01*
X145454880Y-102979019D01*
X145275054Y-102848368D01*
X145275053Y-102848367D01*
X145275051Y-102848366D01*
X145160139Y-102789815D01*
X145043576Y-102730422D01*
X144796493Y-102650140D01*
X144539902Y-102609500D01*
X144539897Y-102609500D01*
X144280103Y-102609500D01*
X144280098Y-102609500D01*
X144023506Y-102650140D01*
X143776423Y-102730422D01*
X143544945Y-102848368D01*
X143334774Y-103001066D01*
X143334768Y-103001071D01*
X143151071Y-103184768D01*
X143151066Y-103184774D01*
X142998368Y-103394945D01*
X142880422Y-103626423D01*
X142800140Y-103873506D01*
X142759500Y-104130097D01*
X126660500Y-104130097D01*
X126628849Y-103930263D01*
X126619860Y-103873507D01*
X126539579Y-103626428D01*
X126539577Y-103626425D01*
X126539577Y-103626423D01*
X126481454Y-103512352D01*
X126421634Y-103394949D01*
X126268931Y-103184771D01*
X126085229Y-103001069D01*
X126054880Y-102979019D01*
X125875054Y-102848368D01*
X125875053Y-102848367D01*
X125875051Y-102848366D01*
X125760139Y-102789815D01*
X125643576Y-102730422D01*
X125396493Y-102650140D01*
X125139902Y-102609500D01*
X125139897Y-102609500D01*
X124880103Y-102609500D01*
X124880098Y-102609500D01*
X124623506Y-102650140D01*
X124376423Y-102730422D01*
X124144945Y-102848368D01*
X123934774Y-103001066D01*
X123934768Y-103001071D01*
X123751071Y-103184768D01*
X123751066Y-103184774D01*
X123598368Y-103394945D01*
X123598366Y-103394949D01*
X123498066Y-103591796D01*
X123450093Y-103642591D01*
X123387583Y-103659500D01*
X122419057Y-103659500D01*
X122260943Y-103659500D01*
X122108215Y-103700423D01*
X122108214Y-103700423D01*
X122108212Y-103700424D01*
X122108209Y-103700425D01*
X122058096Y-103729359D01*
X122058095Y-103729360D01*
X122014689Y-103754420D01*
X121971285Y-103779479D01*
X121971282Y-103779481D01*
X120229479Y-105521284D01*
X120208696Y-105557283D01*
X120199911Y-105572500D01*
X120150423Y-105658215D01*
X120109499Y-105810943D01*
X120109499Y-105810945D01*
X120109499Y-105979046D01*
X120109500Y-105979059D01*
X120109500Y-108889903D01*
X120089815Y-108956942D01*
X120073181Y-108977584D01*
X117187584Y-111863181D01*
X117160656Y-111877884D01*
X117134838Y-111894477D01*
X117128637Y-111895368D01*
X117126261Y-111896666D01*
X117099903Y-111899500D01*
X116894836Y-111899500D01*
X116827797Y-111879815D01*
X116791734Y-111844391D01*
X116721789Y-111739710D01*
X116610292Y-111628213D01*
X116610288Y-111628210D01*
X116479185Y-111540609D01*
X116479172Y-111540602D01*
X116333501Y-111480264D01*
X116333489Y-111480261D01*
X116178845Y-111449500D01*
X116178842Y-111449500D01*
X116021158Y-111449500D01*
X116021155Y-111449500D01*
X115866510Y-111480261D01*
X115866498Y-111480264D01*
X115720827Y-111540602D01*
X115720814Y-111540609D01*
X115589125Y-111628602D01*
X115522447Y-111649480D01*
X115520234Y-111649500D01*
X100836555Y-111649500D01*
X100769516Y-111629815D01*
X100723761Y-111577011D01*
X100713817Y-111507853D01*
X100718840Y-111489588D01*
X100717969Y-111489324D01*
X100719731Y-111483509D01*
X100719737Y-111483497D01*
X100750500Y-111328842D01*
X100750500Y-111171158D01*
X100750500Y-111171155D01*
X100750499Y-111171153D01*
X100742781Y-111132351D01*
X100719737Y-111016503D01*
X100690118Y-110944995D01*
X100659397Y-110870827D01*
X100659390Y-110870814D01*
X100571789Y-110739711D01*
X100571786Y-110739707D01*
X100460292Y-110628213D01*
X100460288Y-110628210D01*
X100329185Y-110540609D01*
X100329172Y-110540602D01*
X100183501Y-110480264D01*
X100183491Y-110480261D01*
X100028149Y-110449361D01*
X99966238Y-110416976D01*
X99964660Y-110415425D01*
X99511416Y-109962181D01*
X99477931Y-109900858D01*
X99482915Y-109831166D01*
X99524787Y-109775233D01*
X99590251Y-109750816D01*
X99599097Y-109750500D01*
X103220234Y-109750500D01*
X103287273Y-109770185D01*
X103289125Y-109771398D01*
X103420814Y-109859390D01*
X103420827Y-109859397D01*
X103561621Y-109917715D01*
X103566503Y-109919737D01*
X103721153Y-109950499D01*
X103721156Y-109950500D01*
X103721158Y-109950500D01*
X103878844Y-109950500D01*
X103878845Y-109950499D01*
X104033497Y-109919737D01*
X104179179Y-109859394D01*
X104310289Y-109771789D01*
X104421789Y-109660289D01*
X104509394Y-109529179D01*
X104569737Y-109383497D01*
X104600500Y-109228842D01*
X104600500Y-109071158D01*
X104600500Y-109071155D01*
X104600499Y-109071153D01*
X104577781Y-108956942D01*
X104569737Y-108916503D01*
X104542228Y-108850090D01*
X104509397Y-108770827D01*
X104509390Y-108770814D01*
X104421789Y-108639711D01*
X104421786Y-108639707D01*
X104310292Y-108528213D01*
X104310288Y-108528210D01*
X104179185Y-108440609D01*
X104179172Y-108440602D01*
X104033501Y-108380264D01*
X104033489Y-108380261D01*
X103878845Y-108349500D01*
X103878842Y-108349500D01*
X103721158Y-108349500D01*
X103721155Y-108349500D01*
X103566510Y-108380261D01*
X103566498Y-108380264D01*
X103420827Y-108440602D01*
X103420814Y-108440609D01*
X103289125Y-108528602D01*
X103222447Y-108549480D01*
X103220234Y-108549500D01*
X98715784Y-108549500D01*
X98648745Y-108529815D01*
X98628103Y-108513181D01*
X97536819Y-107421897D01*
X97503334Y-107360574D01*
X97500500Y-107334216D01*
X97500500Y-104130097D01*
X104009500Y-104130097D01*
X104009500Y-104389902D01*
X104050140Y-104646493D01*
X104130422Y-104893576D01*
X104211534Y-105052764D01*
X104237021Y-105102786D01*
X104248368Y-105125054D01*
X104352505Y-105268386D01*
X104401069Y-105335229D01*
X104584771Y-105518931D01*
X104794949Y-105671634D01*
X104942445Y-105746787D01*
X105026423Y-105789577D01*
X105026425Y-105789577D01*
X105026428Y-105789579D01*
X105273507Y-105869860D01*
X105405706Y-105890797D01*
X105530098Y-105910500D01*
X105530103Y-105910500D01*
X105789902Y-105910500D01*
X105903298Y-105892539D01*
X106046493Y-105869860D01*
X106293572Y-105789579D01*
X106525051Y-105671634D01*
X106735229Y-105518931D01*
X106862819Y-105391341D01*
X106924142Y-105357856D01*
X106993834Y-105362840D01*
X107049767Y-105404712D01*
X107074184Y-105470176D01*
X107074500Y-105479022D01*
X107074500Y-105618579D01*
X107078759Y-105645466D01*
X107102214Y-105793556D01*
X107156956Y-105962039D01*
X107156957Y-105962042D01*
X107237386Y-106119890D01*
X107341517Y-106263214D01*
X107466786Y-106388483D01*
X107610110Y-106492614D01*
X107687529Y-106532061D01*
X107767957Y-106573042D01*
X107767960Y-106573043D01*
X107852201Y-106600414D01*
X107936445Y-106627786D01*
X108111421Y-106655500D01*
X108111422Y-106655500D01*
X108288578Y-106655500D01*
X108288579Y-106655500D01*
X108463555Y-106627786D01*
X108632042Y-106573042D01*
X108789890Y-106492614D01*
X108933214Y-106388483D01*
X109058483Y-106263214D01*
X109162614Y-106119890D01*
X109243042Y-105962042D01*
X109297786Y-105793555D01*
X109325500Y-105618579D01*
X109325500Y-105441421D01*
X109297786Y-105266445D01*
X109268091Y-105175051D01*
X109243043Y-105097960D01*
X109243042Y-105097957D01*
X109188090Y-104990109D01*
X109162614Y-104940110D01*
X109058483Y-104796786D01*
X108933214Y-104671517D01*
X108789890Y-104567386D01*
X108754907Y-104549561D01*
X108632042Y-104486957D01*
X108632039Y-104486956D01*
X108463556Y-104432214D01*
X108376067Y-104418357D01*
X108288579Y-104404500D01*
X108111421Y-104404500D01*
X108053095Y-104413738D01*
X107936443Y-104432214D01*
X107767960Y-104486956D01*
X107767957Y-104486957D01*
X107610106Y-104567388D01*
X107481962Y-104660490D01*
X107416156Y-104683970D01*
X107348102Y-104668144D01*
X107299407Y-104618039D01*
X107285532Y-104549561D01*
X107286604Y-104540774D01*
X107310500Y-104389902D01*
X107310500Y-104130097D01*
X107278849Y-103930263D01*
X107269860Y-103873507D01*
X107189579Y-103626428D01*
X107189577Y-103626425D01*
X107189577Y-103626423D01*
X107131454Y-103512352D01*
X107071634Y-103394949D01*
X106918931Y-103184771D01*
X106735229Y-103001069D01*
X106704880Y-102979019D01*
X106525054Y-102848368D01*
X106525053Y-102848367D01*
X106525051Y-102848366D01*
X106410139Y-102789815D01*
X106293576Y-102730422D01*
X106046493Y-102650140D01*
X105789902Y-102609500D01*
X105789897Y-102609500D01*
X105530103Y-102609500D01*
X105530098Y-102609500D01*
X105273506Y-102650140D01*
X105026423Y-102730422D01*
X104794945Y-102848368D01*
X104584774Y-103001066D01*
X104584768Y-103001071D01*
X104401071Y-103184768D01*
X104401066Y-103184774D01*
X104248368Y-103394945D01*
X104130422Y-103626423D01*
X104050140Y-103873506D01*
X104009500Y-104130097D01*
X97500500Y-104130097D01*
X97500500Y-101979765D01*
X97520185Y-101912726D01*
X97521398Y-101910874D01*
X97609390Y-101779185D01*
X97609390Y-101779184D01*
X97609394Y-101779179D01*
X97669737Y-101633497D01*
X97700500Y-101478842D01*
X97700500Y-101321158D01*
X97700500Y-101321155D01*
X97700499Y-101321153D01*
X97671028Y-101172994D01*
X97669737Y-101166503D01*
X97641559Y-101098475D01*
X97609397Y-101020827D01*
X97609390Y-101020814D01*
X97521789Y-100889711D01*
X97521786Y-100889707D01*
X97410292Y-100778213D01*
X97410288Y-100778210D01*
X97279185Y-100690609D01*
X97279172Y-100690602D01*
X97133501Y-100630264D01*
X97133489Y-100630261D01*
X96978845Y-100599500D01*
X96978842Y-100599500D01*
X96821158Y-100599500D01*
X96798690Y-100603969D01*
X96777705Y-100602090D01*
X96756853Y-100605089D01*
X96743603Y-100599038D01*
X96729099Y-100597740D01*
X96712463Y-100584816D01*
X96693297Y-100576064D01*
X96685422Y-100563810D01*
X96673922Y-100554877D01*
X96666913Y-100535010D01*
X96655523Y-100517286D01*
X96651988Y-100492700D01*
X96650678Y-100488987D01*
X96650500Y-100482351D01*
X96650500Y-100302900D01*
X105955600Y-100302900D01*
X105955600Y-100597099D01*
X105955601Y-100597116D01*
X105989728Y-100856342D01*
X105994002Y-100888800D01*
X106068414Y-101166510D01*
X106070152Y-101172994D01*
X106182734Y-101444794D01*
X106182742Y-101444810D01*
X106329840Y-101699589D01*
X106329851Y-101699605D01*
X106508948Y-101933009D01*
X106508954Y-101933016D01*
X106716983Y-102141045D01*
X106716990Y-102141051D01*
X106793814Y-102200000D01*
X106950403Y-102320155D01*
X106950410Y-102320159D01*
X107205189Y-102467257D01*
X107205205Y-102467265D01*
X107477005Y-102579847D01*
X107477007Y-102579847D01*
X107477013Y-102579850D01*
X107761200Y-102655998D01*
X108052894Y-102694400D01*
X108052901Y-102694400D01*
X108347099Y-102694400D01*
X108347106Y-102694400D01*
X108638800Y-102655998D01*
X108922987Y-102579850D01*
X109074082Y-102517265D01*
X109194794Y-102467265D01*
X109194797Y-102467263D01*
X109194803Y-102467261D01*
X109449597Y-102320155D01*
X109683011Y-102141050D01*
X109891050Y-101933011D01*
X110070155Y-101699597D01*
X110217261Y-101444803D01*
X110228606Y-101417415D01*
X110329209Y-101174534D01*
X110329850Y-101172987D01*
X110405998Y-100888800D01*
X110444400Y-100597106D01*
X110444400Y-100302900D01*
X125305600Y-100302900D01*
X125305600Y-100597099D01*
X125305601Y-100597116D01*
X125339728Y-100856342D01*
X125344002Y-100888800D01*
X125418414Y-101166510D01*
X125420152Y-101172994D01*
X125532734Y-101444794D01*
X125532742Y-101444810D01*
X125679840Y-101699589D01*
X125679851Y-101699605D01*
X125858948Y-101933009D01*
X125858954Y-101933016D01*
X126066983Y-102141045D01*
X126066990Y-102141051D01*
X126143814Y-102200000D01*
X126300403Y-102320155D01*
X126300410Y-102320159D01*
X126555189Y-102467257D01*
X126555205Y-102467265D01*
X126827005Y-102579847D01*
X126827007Y-102579847D01*
X126827013Y-102579850D01*
X127111200Y-102655998D01*
X127402894Y-102694400D01*
X127402901Y-102694400D01*
X127697099Y-102694400D01*
X127697106Y-102694400D01*
X127988800Y-102655998D01*
X128272987Y-102579850D01*
X128424082Y-102517265D01*
X128544794Y-102467265D01*
X128544797Y-102467263D01*
X128544803Y-102467261D01*
X128799597Y-102320155D01*
X129033011Y-102141050D01*
X129241050Y-101933011D01*
X129420155Y-101699597D01*
X129567261Y-101444803D01*
X129578606Y-101417415D01*
X129679209Y-101174534D01*
X129679850Y-101172987D01*
X129755998Y-100888800D01*
X129794400Y-100597106D01*
X129794400Y-100302900D01*
X144705600Y-100302900D01*
X144705600Y-100597099D01*
X144705601Y-100597116D01*
X144739728Y-100856342D01*
X144744002Y-100888800D01*
X144818414Y-101166510D01*
X144820152Y-101172994D01*
X144932734Y-101444794D01*
X144932742Y-101444810D01*
X145079840Y-101699589D01*
X145079851Y-101699605D01*
X145258948Y-101933009D01*
X145258954Y-101933016D01*
X145466983Y-102141045D01*
X145466990Y-102141051D01*
X145543814Y-102200000D01*
X145700403Y-102320155D01*
X145700410Y-102320159D01*
X145955189Y-102467257D01*
X145955205Y-102467265D01*
X146227005Y-102579847D01*
X146227007Y-102579847D01*
X146227013Y-102579850D01*
X146511200Y-102655998D01*
X146802894Y-102694400D01*
X146802901Y-102694400D01*
X147097099Y-102694400D01*
X147097106Y-102694400D01*
X147388800Y-102655998D01*
X147672987Y-102579850D01*
X147824082Y-102517265D01*
X147944794Y-102467265D01*
X147944797Y-102467263D01*
X147944803Y-102467261D01*
X148199597Y-102320155D01*
X148433011Y-102141050D01*
X148641050Y-101933011D01*
X148820155Y-101699597D01*
X148967261Y-101444803D01*
X148978606Y-101417415D01*
X149079209Y-101174534D01*
X149079850Y-101172987D01*
X149155998Y-100888800D01*
X149194400Y-100597106D01*
X149194400Y-100352900D01*
X163955600Y-100352900D01*
X163955600Y-100647099D01*
X163955601Y-100647116D01*
X163987538Y-100889707D01*
X163994002Y-100938800D01*
X164056752Y-101172987D01*
X164070152Y-101222994D01*
X164182734Y-101494794D01*
X164182742Y-101494810D01*
X164329840Y-101749589D01*
X164329851Y-101749605D01*
X164508948Y-101983009D01*
X164508954Y-101983016D01*
X164716983Y-102191045D01*
X164716990Y-102191051D01*
X164793912Y-102250075D01*
X164950403Y-102370155D01*
X164950410Y-102370159D01*
X165205189Y-102517257D01*
X165205205Y-102517265D01*
X165477005Y-102629847D01*
X165477007Y-102629847D01*
X165477013Y-102629850D01*
X165761200Y-102705998D01*
X166052894Y-102744400D01*
X166052901Y-102744400D01*
X166347099Y-102744400D01*
X166347106Y-102744400D01*
X166638800Y-102705998D01*
X166922987Y-102629850D01*
X167084907Y-102562781D01*
X167194794Y-102517265D01*
X167194797Y-102517263D01*
X167194803Y-102517261D01*
X167449597Y-102370155D01*
X167683011Y-102191050D01*
X167891050Y-101983011D01*
X168070155Y-101749597D01*
X168217261Y-101494803D01*
X168223872Y-101478844D01*
X168299475Y-101296318D01*
X168329850Y-101222987D01*
X168405998Y-100938800D01*
X168444400Y-100647106D01*
X168444400Y-100352894D01*
X168405998Y-100061200D01*
X168329850Y-99777013D01*
X168318137Y-99748735D01*
X168241005Y-99562518D01*
X168225055Y-99524014D01*
X168223870Y-99521153D01*
X175099500Y-99521153D01*
X175099500Y-99678846D01*
X175130261Y-99833489D01*
X175130264Y-99833501D01*
X175190602Y-99979172D01*
X175190609Y-99979185D01*
X175278210Y-100110288D01*
X175278213Y-100110292D01*
X175389707Y-100221786D01*
X175389711Y-100221789D01*
X175520814Y-100309390D01*
X175520827Y-100309397D01*
X175666498Y-100369735D01*
X175666503Y-100369737D01*
X175731147Y-100382595D01*
X175821849Y-100400638D01*
X175883760Y-100433023D01*
X175885339Y-100434574D01*
X176563181Y-101112416D01*
X176596666Y-101173739D01*
X176599500Y-101200097D01*
X176599500Y-104929057D01*
X176607265Y-104958034D01*
X176640423Y-105081783D01*
X176640426Y-105081790D01*
X176719475Y-105218709D01*
X176719479Y-105218714D01*
X176719480Y-105218716D01*
X176831284Y-105330520D01*
X176831286Y-105330521D01*
X176831290Y-105330524D01*
X176968048Y-105409480D01*
X176968216Y-105409577D01*
X177120943Y-105450500D01*
X177279057Y-105450500D01*
X181904978Y-105450500D01*
X181972017Y-105470185D01*
X181992659Y-105486819D01*
X182024771Y-105518931D01*
X182234949Y-105671634D01*
X182382445Y-105746787D01*
X182466423Y-105789577D01*
X182466425Y-105789577D01*
X182466428Y-105789579D01*
X182713507Y-105869860D01*
X182845706Y-105890797D01*
X182970098Y-105910500D01*
X182970103Y-105910500D01*
X183229902Y-105910500D01*
X183343298Y-105892539D01*
X183486493Y-105869860D01*
X183733572Y-105789579D01*
X183965051Y-105671634D01*
X184175229Y-105518931D01*
X184302819Y-105391341D01*
X184364142Y-105357856D01*
X184433834Y-105362840D01*
X184489767Y-105404712D01*
X184514184Y-105470176D01*
X184514500Y-105479022D01*
X184514500Y-105618579D01*
X184518759Y-105645466D01*
X184542214Y-105793556D01*
X184596956Y-105962039D01*
X184596957Y-105962042D01*
X184677386Y-106119890D01*
X184781517Y-106263214D01*
X184906786Y-106388483D01*
X185050110Y-106492614D01*
X185127529Y-106532061D01*
X185207957Y-106573042D01*
X185207960Y-106573043D01*
X185292201Y-106600414D01*
X185376445Y-106627786D01*
X185551421Y-106655500D01*
X185551422Y-106655500D01*
X185728578Y-106655500D01*
X185728579Y-106655500D01*
X185903555Y-106627786D01*
X186072042Y-106573042D01*
X186229890Y-106492614D01*
X186373214Y-106388483D01*
X186498483Y-106263214D01*
X186602614Y-106119890D01*
X186683042Y-105962042D01*
X186737786Y-105793555D01*
X186765500Y-105618579D01*
X186765500Y-105441421D01*
X186737786Y-105266445D01*
X186708091Y-105175051D01*
X186683043Y-105097960D01*
X186683042Y-105097957D01*
X186628090Y-104990109D01*
X186602614Y-104940110D01*
X186498483Y-104796786D01*
X186373214Y-104671517D01*
X186229890Y-104567386D01*
X186194907Y-104549561D01*
X186072042Y-104486957D01*
X186072039Y-104486956D01*
X185903556Y-104432214D01*
X185816067Y-104418357D01*
X185728579Y-104404500D01*
X185551421Y-104404500D01*
X185493095Y-104413738D01*
X185376443Y-104432214D01*
X185207960Y-104486956D01*
X185207957Y-104486957D01*
X185050106Y-104567388D01*
X184921962Y-104660490D01*
X184856156Y-104683970D01*
X184788102Y-104668144D01*
X184739407Y-104618039D01*
X184725532Y-104549561D01*
X184726604Y-104540774D01*
X184750500Y-104389902D01*
X184750500Y-104130097D01*
X184718849Y-103930263D01*
X184709860Y-103873507D01*
X184629579Y-103626428D01*
X184629577Y-103626425D01*
X184629577Y-103626423D01*
X184571454Y-103512352D01*
X184511634Y-103394949D01*
X184358931Y-103184771D01*
X184175229Y-103001069D01*
X184144880Y-102979019D01*
X183965054Y-102848368D01*
X183965053Y-102848367D01*
X183965051Y-102848366D01*
X183850139Y-102789815D01*
X183733576Y-102730422D01*
X183486493Y-102650140D01*
X183229902Y-102609500D01*
X183229897Y-102609500D01*
X182970103Y-102609500D01*
X182970098Y-102609500D01*
X182713506Y-102650140D01*
X182466423Y-102730422D01*
X182234945Y-102848368D01*
X182024774Y-103001066D01*
X182024768Y-103001071D01*
X181841071Y-103184768D01*
X181841066Y-103184774D01*
X181688368Y-103394945D01*
X181570422Y-103626423D01*
X181490140Y-103873506D01*
X181449499Y-104130099D01*
X181449118Y-104134953D01*
X181446778Y-104134768D01*
X181429815Y-104192539D01*
X181377011Y-104238294D01*
X181325500Y-104249500D01*
X177924500Y-104249500D01*
X177857461Y-104229815D01*
X177811706Y-104177011D01*
X177800500Y-104125500D01*
X177800500Y-100989060D01*
X177800501Y-100989047D01*
X177800501Y-100820944D01*
X177789051Y-100778213D01*
X177759577Y-100668216D01*
X177743394Y-100640186D01*
X177680524Y-100531290D01*
X177680518Y-100531282D01*
X177452136Y-100302900D01*
X183395600Y-100302900D01*
X183395600Y-100597099D01*
X183395601Y-100597116D01*
X183429728Y-100856342D01*
X183434002Y-100888800D01*
X183508414Y-101166510D01*
X183510152Y-101172994D01*
X183622734Y-101444794D01*
X183622742Y-101444810D01*
X183769840Y-101699589D01*
X183769851Y-101699605D01*
X183948948Y-101933009D01*
X183948954Y-101933016D01*
X184156983Y-102141045D01*
X184156990Y-102141051D01*
X184233814Y-102200000D01*
X184390403Y-102320155D01*
X184390410Y-102320159D01*
X184645189Y-102467257D01*
X184645205Y-102467265D01*
X184917005Y-102579847D01*
X184917007Y-102579847D01*
X184917013Y-102579850D01*
X185201200Y-102655998D01*
X185492894Y-102694400D01*
X185492901Y-102694400D01*
X185787099Y-102694400D01*
X185787106Y-102694400D01*
X186078800Y-102655998D01*
X186362987Y-102579850D01*
X186514082Y-102517265D01*
X186634794Y-102467265D01*
X186634797Y-102467263D01*
X186634803Y-102467261D01*
X186889597Y-102320155D01*
X187123011Y-102141050D01*
X187129371Y-102134690D01*
X187203105Y-102060957D01*
X187331045Y-101933016D01*
X187331050Y-101933011D01*
X187510155Y-101699597D01*
X187574339Y-101588428D01*
X193150000Y-101588428D01*
X193150000Y-101700000D01*
X193969670Y-101700000D01*
X193949925Y-101719745D01*
X193900556Y-101805255D01*
X193875000Y-101900630D01*
X193875000Y-101999370D01*
X193900556Y-102094745D01*
X193949925Y-102180255D01*
X193969670Y-102200000D01*
X193150000Y-102200000D01*
X193150000Y-102311571D01*
X193177085Y-102482584D01*
X193230591Y-102647257D01*
X193309195Y-102801524D01*
X193410967Y-102941602D01*
X193533397Y-103064032D01*
X193673475Y-103165804D01*
X193827744Y-103244408D01*
X193992415Y-103297914D01*
X193992414Y-103297914D01*
X193999999Y-103299115D01*
X194000000Y-103299114D01*
X194000000Y-102230330D01*
X194019745Y-102250075D01*
X194105255Y-102299444D01*
X194200630Y-102325000D01*
X194299370Y-102325000D01*
X194394745Y-102299444D01*
X194480255Y-102250075D01*
X194500000Y-102230330D01*
X194500000Y-103299115D01*
X194507584Y-103297914D01*
X194672255Y-103244408D01*
X194826524Y-103165804D01*
X194966598Y-103064035D01*
X195074199Y-102956434D01*
X195135522Y-102922949D01*
X195205214Y-102927933D01*
X195261148Y-102969804D01*
X195267420Y-102979019D01*
X195299203Y-103030549D01*
X195307288Y-103043656D01*
X195431344Y-103167712D01*
X195580666Y-103259814D01*
X195747203Y-103314999D01*
X195849991Y-103325500D01*
X196650008Y-103325499D01*
X196650016Y-103325498D01*
X196650019Y-103325498D01*
X196706302Y-103319748D01*
X196752797Y-103314999D01*
X196919334Y-103259814D01*
X197068656Y-103167712D01*
X197192712Y-103043656D01*
X197284814Y-102894334D01*
X197339999Y-102727797D01*
X197350500Y-102625009D01*
X197350499Y-101274992D01*
X197339999Y-101172203D01*
X197284814Y-101005666D01*
X197192712Y-100856344D01*
X197068656Y-100732288D01*
X196944310Y-100655591D01*
X196919336Y-100640187D01*
X196919331Y-100640185D01*
X196889382Y-100630261D01*
X196752797Y-100585001D01*
X196752795Y-100585000D01*
X196650010Y-100574500D01*
X195849998Y-100574500D01*
X195849980Y-100574501D01*
X195747203Y-100585000D01*
X195747200Y-100585001D01*
X195580668Y-100640185D01*
X195580663Y-100640187D01*
X195431342Y-100732289D01*
X195307289Y-100856342D01*
X195267420Y-100920981D01*
X195215472Y-100967705D01*
X195146509Y-100978928D01*
X195082427Y-100951084D01*
X195074200Y-100943565D01*
X194966602Y-100835967D01*
X194826524Y-100734195D01*
X194672257Y-100655591D01*
X194507589Y-100602087D01*
X194507581Y-100602085D01*
X194500000Y-100600884D01*
X194500000Y-101669670D01*
X194480255Y-101649925D01*
X194394745Y-101600556D01*
X194299370Y-101575000D01*
X194200630Y-101575000D01*
X194105255Y-101600556D01*
X194019745Y-101649925D01*
X194000000Y-101669670D01*
X194000000Y-100600884D01*
X193999999Y-100600884D01*
X193992418Y-100602085D01*
X193992410Y-100602087D01*
X193827742Y-100655591D01*
X193673475Y-100734195D01*
X193533397Y-100835967D01*
X193410967Y-100958397D01*
X193309195Y-101098475D01*
X193230591Y-101252742D01*
X193177085Y-101417415D01*
X193150000Y-101588428D01*
X187574339Y-101588428D01*
X187612948Y-101521556D01*
X187657257Y-101444810D01*
X187657265Y-101444794D01*
X187769209Y-101174534D01*
X187769850Y-101172987D01*
X187845998Y-100888800D01*
X187884400Y-100597106D01*
X187884400Y-100302894D01*
X187845998Y-100011200D01*
X187769850Y-99727013D01*
X187746834Y-99671446D01*
X187657265Y-99455205D01*
X187657257Y-99455189D01*
X187510159Y-99200410D01*
X187510155Y-99200403D01*
X187369417Y-99016990D01*
X187331051Y-98966990D01*
X187331045Y-98966983D01*
X187123016Y-98758954D01*
X187123009Y-98758948D01*
X186889605Y-98579851D01*
X186889603Y-98579849D01*
X186889597Y-98579845D01*
X186889592Y-98579842D01*
X186889589Y-98579840D01*
X186634810Y-98432742D01*
X186634794Y-98432734D01*
X186362994Y-98320152D01*
X186265401Y-98294002D01*
X186078800Y-98244002D01*
X186078799Y-98244001D01*
X186078796Y-98244001D01*
X185787116Y-98205601D01*
X185787111Y-98205600D01*
X185787106Y-98205600D01*
X185492894Y-98205600D01*
X185492888Y-98205600D01*
X185492883Y-98205601D01*
X185201203Y-98244001D01*
X184917005Y-98320152D01*
X184645205Y-98432734D01*
X184645189Y-98432742D01*
X184390410Y-98579840D01*
X184390394Y-98579851D01*
X184156990Y-98758948D01*
X184156983Y-98758954D01*
X183948954Y-98966983D01*
X183948948Y-98966990D01*
X183769851Y-99200394D01*
X183769840Y-99200410D01*
X183622742Y-99455189D01*
X183622734Y-99455205D01*
X183510152Y-99727005D01*
X183434001Y-100011203D01*
X183395601Y-100302883D01*
X183395600Y-100302900D01*
X177452136Y-100302900D01*
X176734573Y-99585337D01*
X176701088Y-99524014D01*
X176700637Y-99521847D01*
X176697325Y-99505197D01*
X176669737Y-99366503D01*
X176669735Y-99366498D01*
X176617438Y-99240239D01*
X176609395Y-99220824D01*
X176609394Y-99220821D01*
X176609392Y-99220818D01*
X176609390Y-99220814D01*
X176521789Y-99089711D01*
X176521786Y-99089707D01*
X176410292Y-98978213D01*
X176410288Y-98978210D01*
X176279185Y-98890609D01*
X176279172Y-98890602D01*
X176133501Y-98830264D01*
X176133489Y-98830261D01*
X175978845Y-98799500D01*
X175978842Y-98799500D01*
X175821158Y-98799500D01*
X175821155Y-98799500D01*
X175666510Y-98830261D01*
X175666498Y-98830264D01*
X175520827Y-98890602D01*
X175520814Y-98890609D01*
X175389711Y-98978210D01*
X175389707Y-98978213D01*
X175278213Y-99089707D01*
X175278210Y-99089711D01*
X175190609Y-99220814D01*
X175190602Y-99220827D01*
X175130264Y-99366498D01*
X175130261Y-99366510D01*
X175099500Y-99521153D01*
X168223870Y-99521153D01*
X168217261Y-99505197D01*
X168217258Y-99505192D01*
X168217257Y-99505189D01*
X168070159Y-99250410D01*
X168070155Y-99250403D01*
X168013994Y-99177213D01*
X167891051Y-99016990D01*
X167891045Y-99016983D01*
X167683016Y-98808954D01*
X167683009Y-98808948D01*
X167449605Y-98629851D01*
X167449603Y-98629849D01*
X167449597Y-98629845D01*
X167449592Y-98629842D01*
X167449589Y-98629840D01*
X167194810Y-98482742D01*
X167194794Y-98482734D01*
X166922994Y-98370152D01*
X166736392Y-98320152D01*
X166638800Y-98294002D01*
X166638799Y-98294001D01*
X166638796Y-98294001D01*
X166347116Y-98255601D01*
X166347111Y-98255600D01*
X166347106Y-98255600D01*
X166052894Y-98255600D01*
X166052888Y-98255600D01*
X166052883Y-98255601D01*
X165761203Y-98294001D01*
X165477005Y-98370152D01*
X165205205Y-98482734D01*
X165205189Y-98482742D01*
X164950410Y-98629840D01*
X164950394Y-98629851D01*
X164716990Y-98808948D01*
X164716983Y-98808954D01*
X164508954Y-99016983D01*
X164508948Y-99016990D01*
X164329851Y-99250394D01*
X164329840Y-99250410D01*
X164182742Y-99505189D01*
X164182734Y-99505205D01*
X164070152Y-99777005D01*
X163994001Y-100061203D01*
X163955601Y-100352883D01*
X163955600Y-100352900D01*
X149194400Y-100352900D01*
X149194400Y-100302894D01*
X149155998Y-100011200D01*
X149079850Y-99727013D01*
X149056834Y-99671446D01*
X148967265Y-99455205D01*
X148967257Y-99455189D01*
X148880423Y-99304789D01*
X148880422Y-99304788D01*
X148859306Y-99268214D01*
X148820155Y-99200403D01*
X148679417Y-99016990D01*
X148641051Y-98966990D01*
X148641045Y-98966983D01*
X148433016Y-98758954D01*
X148433009Y-98758948D01*
X148199605Y-98579851D01*
X148199603Y-98579849D01*
X148199597Y-98579845D01*
X148199592Y-98579842D01*
X148199589Y-98579840D01*
X147944810Y-98432742D01*
X147944794Y-98432734D01*
X147672994Y-98320152D01*
X147575401Y-98294002D01*
X147388800Y-98244002D01*
X147388799Y-98244001D01*
X147388796Y-98244001D01*
X147097116Y-98205601D01*
X147097111Y-98205600D01*
X147097106Y-98205600D01*
X146802894Y-98205600D01*
X146802888Y-98205600D01*
X146802883Y-98205601D01*
X146511203Y-98244001D01*
X146227005Y-98320152D01*
X145955205Y-98432734D01*
X145955189Y-98432742D01*
X145700410Y-98579840D01*
X145700394Y-98579851D01*
X145466990Y-98758948D01*
X145466983Y-98758954D01*
X145258954Y-98966983D01*
X145258948Y-98966990D01*
X145079851Y-99200394D01*
X145079840Y-99200410D01*
X144932742Y-99455189D01*
X144932734Y-99455205D01*
X144820152Y-99727005D01*
X144744001Y-100011203D01*
X144705601Y-100302883D01*
X144705600Y-100302900D01*
X129794400Y-100302900D01*
X129794400Y-100302894D01*
X129755998Y-100011200D01*
X129679850Y-99727013D01*
X129656834Y-99671446D01*
X129567265Y-99455205D01*
X129567257Y-99455189D01*
X129451555Y-99254789D01*
X129451554Y-99254788D01*
X129420155Y-99200403D01*
X129279417Y-99016990D01*
X129241051Y-98966990D01*
X129241045Y-98966983D01*
X129033016Y-98758954D01*
X129033009Y-98758948D01*
X128799605Y-98579851D01*
X128799603Y-98579849D01*
X128799597Y-98579845D01*
X128799592Y-98579842D01*
X128799589Y-98579840D01*
X128544810Y-98432742D01*
X128544794Y-98432734D01*
X128272994Y-98320152D01*
X128175401Y-98294002D01*
X127988800Y-98244002D01*
X127988799Y-98244001D01*
X127988796Y-98244001D01*
X127697116Y-98205601D01*
X127697111Y-98205600D01*
X127697106Y-98205600D01*
X127402894Y-98205600D01*
X127402888Y-98205600D01*
X127402883Y-98205601D01*
X127111203Y-98244001D01*
X126827005Y-98320152D01*
X126555205Y-98432734D01*
X126555189Y-98432742D01*
X126300410Y-98579840D01*
X126300394Y-98579851D01*
X126066990Y-98758948D01*
X126066983Y-98758954D01*
X125858954Y-98966983D01*
X125858948Y-98966990D01*
X125679851Y-99200394D01*
X125679840Y-99200410D01*
X125532742Y-99455189D01*
X125532734Y-99455205D01*
X125420152Y-99727005D01*
X125344001Y-100011203D01*
X125305601Y-100302883D01*
X125305600Y-100302900D01*
X110444400Y-100302900D01*
X110444400Y-100302894D01*
X110405998Y-100011200D01*
X110329850Y-99727013D01*
X110306834Y-99671446D01*
X110217265Y-99455205D01*
X110217257Y-99455189D01*
X110101555Y-99254789D01*
X110101554Y-99254788D01*
X110070155Y-99200403D01*
X109929417Y-99016990D01*
X109891051Y-98966990D01*
X109891045Y-98966983D01*
X109683016Y-98758954D01*
X109683009Y-98758948D01*
X109449605Y-98579851D01*
X109449603Y-98579849D01*
X109449597Y-98579845D01*
X109449592Y-98579842D01*
X109449589Y-98579840D01*
X109194810Y-98432742D01*
X109194794Y-98432734D01*
X108922994Y-98320152D01*
X108825401Y-98294002D01*
X108638800Y-98244002D01*
X108638799Y-98244001D01*
X108638796Y-98244001D01*
X108347116Y-98205601D01*
X108347111Y-98205600D01*
X108347106Y-98205600D01*
X108052894Y-98205600D01*
X108052888Y-98205600D01*
X108052883Y-98205601D01*
X107761203Y-98244001D01*
X107477005Y-98320152D01*
X107205205Y-98432734D01*
X107205189Y-98432742D01*
X106950410Y-98579840D01*
X106950394Y-98579851D01*
X106716990Y-98758948D01*
X106716983Y-98758954D01*
X106508954Y-98966983D01*
X106508948Y-98966990D01*
X106329851Y-99200394D01*
X106329840Y-99200410D01*
X106182742Y-99455189D01*
X106182734Y-99455205D01*
X106070152Y-99727005D01*
X105994001Y-100011203D01*
X105955601Y-100302883D01*
X105955600Y-100302900D01*
X96650500Y-100302900D01*
X96650500Y-99420940D01*
X96647638Y-99410258D01*
X96647638Y-99410259D01*
X96623981Y-99321971D01*
X96609577Y-99268215D01*
X96580639Y-99218095D01*
X96530520Y-99131284D01*
X96418716Y-99019480D01*
X96418715Y-99019479D01*
X96414385Y-99015149D01*
X96414374Y-99015139D01*
X95179377Y-97780142D01*
X101470000Y-97780142D01*
X101470000Y-98039857D01*
X101510629Y-98296377D01*
X101590883Y-98543377D01*
X101708796Y-98774791D01*
X101789951Y-98886492D01*
X101789952Y-98886493D01*
X102433236Y-98243209D01*
X102444724Y-98270942D01*
X102528116Y-98395747D01*
X102634253Y-98501884D01*
X102759058Y-98585276D01*
X102786790Y-98596762D01*
X102143505Y-99240046D01*
X102143506Y-99240048D01*
X102255208Y-99321203D01*
X102486622Y-99439116D01*
X102733622Y-99519370D01*
X102990143Y-99560000D01*
X103249857Y-99560000D01*
X103506377Y-99519370D01*
X103753377Y-99439116D01*
X103984788Y-99321205D01*
X104096492Y-99240046D01*
X104096493Y-99240046D01*
X103453209Y-98596763D01*
X103480942Y-98585276D01*
X103605747Y-98501884D01*
X103711884Y-98395747D01*
X103795276Y-98270942D01*
X103806762Y-98243209D01*
X104450046Y-98886493D01*
X104450046Y-98886492D01*
X104531205Y-98774788D01*
X104649116Y-98543377D01*
X104729370Y-98296377D01*
X104770000Y-98039857D01*
X104770000Y-97780142D01*
X120820000Y-97780142D01*
X120820000Y-98039857D01*
X120860629Y-98296377D01*
X120940883Y-98543377D01*
X121058796Y-98774791D01*
X121139951Y-98886492D01*
X121139952Y-98886493D01*
X121783236Y-98243209D01*
X121794724Y-98270942D01*
X121878116Y-98395747D01*
X121984253Y-98501884D01*
X122109058Y-98585276D01*
X122136790Y-98596762D01*
X121493505Y-99240046D01*
X121493506Y-99240048D01*
X121605208Y-99321203D01*
X121836622Y-99439116D01*
X122083622Y-99519370D01*
X122340143Y-99560000D01*
X122599857Y-99560000D01*
X122856377Y-99519370D01*
X123103377Y-99439116D01*
X123334788Y-99321205D01*
X123446492Y-99240046D01*
X123446493Y-99240046D01*
X122803209Y-98596763D01*
X122830942Y-98585276D01*
X122955747Y-98501884D01*
X123061884Y-98395747D01*
X123145276Y-98270942D01*
X123156762Y-98243209D01*
X123800046Y-98886493D01*
X123800046Y-98886492D01*
X123881205Y-98774788D01*
X123999116Y-98543377D01*
X124079370Y-98296377D01*
X124120000Y-98039857D01*
X124120000Y-97780142D01*
X140220000Y-97780142D01*
X140220000Y-98039857D01*
X140260629Y-98296377D01*
X140340883Y-98543377D01*
X140458796Y-98774791D01*
X140539951Y-98886492D01*
X140539952Y-98886493D01*
X141183236Y-98243209D01*
X141194724Y-98270942D01*
X141278116Y-98395747D01*
X141384253Y-98501884D01*
X141509058Y-98585276D01*
X141536790Y-98596762D01*
X140893505Y-99240046D01*
X140893506Y-99240048D01*
X141005208Y-99321203D01*
X141236622Y-99439116D01*
X141483622Y-99519370D01*
X141740143Y-99560000D01*
X141999857Y-99560000D01*
X142256377Y-99519370D01*
X142503377Y-99439116D01*
X142734788Y-99321205D01*
X142846492Y-99240046D01*
X142846493Y-99240046D01*
X142203209Y-98596763D01*
X142230942Y-98585276D01*
X142355747Y-98501884D01*
X142461884Y-98395747D01*
X142545276Y-98270942D01*
X142556763Y-98243209D01*
X143200046Y-98886493D01*
X143200046Y-98886492D01*
X143281205Y-98774788D01*
X143399116Y-98543377D01*
X143479370Y-98296377D01*
X143520000Y-98039857D01*
X143520000Y-97830142D01*
X159470000Y-97830142D01*
X159470000Y-98089857D01*
X159510629Y-98346377D01*
X159590883Y-98593377D01*
X159708796Y-98824791D01*
X159789951Y-98936492D01*
X159789952Y-98936493D01*
X160433236Y-98293209D01*
X160444724Y-98320942D01*
X160528116Y-98445747D01*
X160634253Y-98551884D01*
X160759058Y-98635276D01*
X160786790Y-98646762D01*
X160143505Y-99290046D01*
X160143506Y-99290048D01*
X160255208Y-99371203D01*
X160486622Y-99489116D01*
X160733622Y-99569370D01*
X160990143Y-99610000D01*
X161249857Y-99610000D01*
X161506377Y-99569370D01*
X161753377Y-99489116D01*
X161984788Y-99371205D01*
X162096492Y-99290046D01*
X162096493Y-99290046D01*
X161453209Y-98646763D01*
X161480942Y-98635276D01*
X161605747Y-98551884D01*
X161711884Y-98445747D01*
X161795276Y-98320942D01*
X161806763Y-98293209D01*
X162450046Y-98936493D01*
X162450046Y-98936492D01*
X162531205Y-98824788D01*
X162649116Y-98593377D01*
X162729370Y-98346377D01*
X162770000Y-98089857D01*
X162770000Y-97830144D01*
X162764381Y-97794669D01*
X162764381Y-97794668D01*
X162762080Y-97780142D01*
X178910000Y-97780142D01*
X178910000Y-98039857D01*
X178950629Y-98296377D01*
X179030883Y-98543377D01*
X179148796Y-98774791D01*
X179229951Y-98886492D01*
X179229952Y-98886493D01*
X179873236Y-98243209D01*
X179884724Y-98270942D01*
X179968116Y-98395747D01*
X180074253Y-98501884D01*
X180199058Y-98585276D01*
X180226790Y-98596762D01*
X179583505Y-99240046D01*
X179583506Y-99240048D01*
X179695208Y-99321203D01*
X179926622Y-99439116D01*
X180173622Y-99519370D01*
X180430143Y-99560000D01*
X180689857Y-99560000D01*
X180946377Y-99519370D01*
X181193377Y-99439116D01*
X181424788Y-99321205D01*
X181536492Y-99240046D01*
X181536493Y-99240046D01*
X180893209Y-98596763D01*
X180920942Y-98585276D01*
X181045747Y-98501884D01*
X181151884Y-98395747D01*
X181235276Y-98270942D01*
X181246763Y-98243209D01*
X181890046Y-98886493D01*
X181890046Y-98886492D01*
X181971205Y-98774788D01*
X182089116Y-98543377D01*
X182169370Y-98296377D01*
X182210000Y-98039857D01*
X182210000Y-97780142D01*
X182169370Y-97523622D01*
X182089116Y-97276622D01*
X181971203Y-97045208D01*
X181890048Y-96933506D01*
X181890046Y-96933505D01*
X181246762Y-97576789D01*
X181235276Y-97549058D01*
X181151884Y-97424253D01*
X181045747Y-97318116D01*
X180920942Y-97234724D01*
X180893209Y-97223236D01*
X181536493Y-96579952D01*
X181536492Y-96579951D01*
X181424791Y-96498796D01*
X181193377Y-96380883D01*
X180946377Y-96300629D01*
X180689857Y-96260000D01*
X180430143Y-96260000D01*
X180173622Y-96300629D01*
X179926622Y-96380883D01*
X179695215Y-96498792D01*
X179583506Y-96579952D01*
X180226790Y-97223236D01*
X180199058Y-97234724D01*
X180074253Y-97318116D01*
X179968116Y-97424253D01*
X179884724Y-97549058D01*
X179873236Y-97576790D01*
X179229952Y-96933506D01*
X179148792Y-97045215D01*
X179030883Y-97276622D01*
X178950629Y-97523622D01*
X178910000Y-97780142D01*
X162762080Y-97780142D01*
X162729370Y-97573622D01*
X162649116Y-97326622D01*
X162531203Y-97095208D01*
X162450048Y-96983506D01*
X162450046Y-96983505D01*
X161806762Y-97626789D01*
X161795276Y-97599058D01*
X161711884Y-97474253D01*
X161605747Y-97368116D01*
X161480942Y-97284724D01*
X161453209Y-97273236D01*
X162096493Y-96629952D01*
X162096492Y-96629951D01*
X161984791Y-96548796D01*
X161753377Y-96430883D01*
X161506377Y-96350629D01*
X161249857Y-96310000D01*
X160990143Y-96310000D01*
X160733622Y-96350629D01*
X160486622Y-96430883D01*
X160255215Y-96548792D01*
X160143506Y-96629952D01*
X160786790Y-97273236D01*
X160759058Y-97284724D01*
X160634253Y-97368116D01*
X160528116Y-97474253D01*
X160444724Y-97599058D01*
X160433236Y-97626790D01*
X159789952Y-96983506D01*
X159708792Y-97095215D01*
X159590883Y-97326622D01*
X159510629Y-97573622D01*
X159470000Y-97830142D01*
X143520000Y-97830142D01*
X143520000Y-97780142D01*
X143479370Y-97523622D01*
X143399116Y-97276622D01*
X143281203Y-97045208D01*
X143200048Y-96933506D01*
X143200046Y-96933505D01*
X142556762Y-97576789D01*
X142545276Y-97549058D01*
X142461884Y-97424253D01*
X142355747Y-97318116D01*
X142230942Y-97234724D01*
X142203209Y-97223236D01*
X142836916Y-96589530D01*
X142846493Y-96579952D01*
X142846492Y-96579951D01*
X142734791Y-96498796D01*
X142503377Y-96380883D01*
X142256377Y-96300629D01*
X141999857Y-96260000D01*
X141740143Y-96260000D01*
X141483622Y-96300629D01*
X141236622Y-96380883D01*
X141005215Y-96498792D01*
X140893506Y-96579952D01*
X141536790Y-97223236D01*
X141509058Y-97234724D01*
X141384253Y-97318116D01*
X141278116Y-97424253D01*
X141194724Y-97549058D01*
X141183236Y-97576790D01*
X140539952Y-96933506D01*
X140458792Y-97045215D01*
X140340883Y-97276622D01*
X140260629Y-97523622D01*
X140220000Y-97780142D01*
X124120000Y-97780142D01*
X124079370Y-97523622D01*
X123999116Y-97276622D01*
X123881203Y-97045208D01*
X123800048Y-96933506D01*
X123800046Y-96933505D01*
X123156762Y-97576789D01*
X123145276Y-97549058D01*
X123061884Y-97424253D01*
X122955747Y-97318116D01*
X122830942Y-97234724D01*
X122803209Y-97223236D01*
X123446493Y-96579952D01*
X123446492Y-96579951D01*
X123334791Y-96498796D01*
X123103377Y-96380883D01*
X122856377Y-96300629D01*
X122599857Y-96260000D01*
X122340143Y-96260000D01*
X122083622Y-96300629D01*
X121836622Y-96380883D01*
X121605215Y-96498792D01*
X121493506Y-96579952D01*
X122136790Y-97223236D01*
X122109058Y-97234724D01*
X121984253Y-97318116D01*
X121878116Y-97424253D01*
X121794724Y-97549058D01*
X121783236Y-97576790D01*
X121139952Y-96933506D01*
X121058792Y-97045215D01*
X120940883Y-97276622D01*
X120860629Y-97523622D01*
X120820000Y-97780142D01*
X104770000Y-97780142D01*
X104729370Y-97523622D01*
X104649116Y-97276622D01*
X104531203Y-97045208D01*
X104450048Y-96933506D01*
X104450046Y-96933505D01*
X103806762Y-97576789D01*
X103795276Y-97549058D01*
X103711884Y-97424253D01*
X103605747Y-97318116D01*
X103480942Y-97234724D01*
X103453209Y-97223236D01*
X104096493Y-96579952D01*
X104096492Y-96579951D01*
X103984791Y-96498796D01*
X103753377Y-96380883D01*
X103506377Y-96300629D01*
X103249857Y-96260000D01*
X102990143Y-96260000D01*
X102733622Y-96300629D01*
X102486622Y-96380883D01*
X102255215Y-96498792D01*
X102143506Y-96579952D01*
X102786790Y-97223236D01*
X102759058Y-97234724D01*
X102634253Y-97318116D01*
X102528116Y-97424253D01*
X102444724Y-97549058D01*
X102433236Y-97576790D01*
X101789952Y-96933506D01*
X101708792Y-97045215D01*
X101590883Y-97276622D01*
X101510629Y-97523622D01*
X101470000Y-97780142D01*
X95179377Y-97780142D01*
X92827590Y-95428355D01*
X92820521Y-95421286D01*
X92820520Y-95421284D01*
X92708716Y-95309480D01*
X92660115Y-95281421D01*
X107074500Y-95281421D01*
X107074500Y-95458579D01*
X107078759Y-95485466D01*
X107102214Y-95633556D01*
X107156956Y-95802039D01*
X107156957Y-95802042D01*
X107182434Y-95852042D01*
X107237386Y-95959890D01*
X107341517Y-96103214D01*
X107466786Y-96228483D01*
X107610110Y-96332614D01*
X107687529Y-96372061D01*
X107767957Y-96413042D01*
X107767960Y-96413043D01*
X107852201Y-96440414D01*
X107936445Y-96467786D01*
X108111421Y-96495500D01*
X108111422Y-96495500D01*
X108288578Y-96495500D01*
X108288579Y-96495500D01*
X108463555Y-96467786D01*
X108632042Y-96413042D01*
X108789890Y-96332614D01*
X108933214Y-96228483D01*
X109058483Y-96103214D01*
X109162614Y-95959890D01*
X109243042Y-95802042D01*
X109297786Y-95633555D01*
X109325500Y-95458579D01*
X109325500Y-95281421D01*
X126424500Y-95281421D01*
X126424500Y-95458579D01*
X126428759Y-95485466D01*
X126452214Y-95633556D01*
X126506956Y-95802039D01*
X126506957Y-95802042D01*
X126532434Y-95852042D01*
X126587386Y-95959890D01*
X126691517Y-96103214D01*
X126816786Y-96228483D01*
X126960110Y-96332614D01*
X127037529Y-96372061D01*
X127117957Y-96413042D01*
X127117960Y-96413043D01*
X127202201Y-96440414D01*
X127286445Y-96467786D01*
X127461421Y-96495500D01*
X127461422Y-96495500D01*
X127638578Y-96495500D01*
X127638579Y-96495500D01*
X127813555Y-96467786D01*
X127982042Y-96413042D01*
X128139890Y-96332614D01*
X128283214Y-96228483D01*
X128408483Y-96103214D01*
X128512614Y-95959890D01*
X128593042Y-95802042D01*
X128647786Y-95633555D01*
X128675500Y-95458579D01*
X128675500Y-95281421D01*
X145824500Y-95281421D01*
X145824500Y-95458579D01*
X145828759Y-95485466D01*
X145852214Y-95633556D01*
X145906956Y-95802039D01*
X145906957Y-95802042D01*
X145932434Y-95852042D01*
X145987386Y-95959890D01*
X146091517Y-96103214D01*
X146216786Y-96228483D01*
X146360110Y-96332614D01*
X146437529Y-96372061D01*
X146517957Y-96413042D01*
X146517960Y-96413043D01*
X146602201Y-96440414D01*
X146686445Y-96467786D01*
X146861421Y-96495500D01*
X146861422Y-96495500D01*
X147038578Y-96495500D01*
X147038579Y-96495500D01*
X147213555Y-96467786D01*
X147382042Y-96413042D01*
X147539890Y-96332614D01*
X147683214Y-96228483D01*
X147808483Y-96103214D01*
X147912614Y-95959890D01*
X147993042Y-95802042D01*
X148047786Y-95633555D01*
X148075500Y-95458579D01*
X148075500Y-95331421D01*
X165074500Y-95331421D01*
X165074500Y-95508578D01*
X165102214Y-95683556D01*
X165156956Y-95852039D01*
X165156957Y-95852042D01*
X165237386Y-96009890D01*
X165341517Y-96153214D01*
X165466786Y-96278483D01*
X165610110Y-96382614D01*
X165669828Y-96413042D01*
X165767957Y-96463042D01*
X165767960Y-96463043D01*
X165852201Y-96490414D01*
X165936445Y-96517786D01*
X166111421Y-96545500D01*
X166111422Y-96545500D01*
X166288578Y-96545500D01*
X166288579Y-96545500D01*
X166463555Y-96517786D01*
X166482023Y-96511785D01*
X166489735Y-96509280D01*
X166632039Y-96463043D01*
X166632042Y-96463042D01*
X166789890Y-96382614D01*
X166933214Y-96278483D01*
X167058483Y-96153214D01*
X167162614Y-96009890D01*
X167243042Y-95852042D01*
X167297786Y-95683555D01*
X167325500Y-95508579D01*
X167325500Y-95331421D01*
X167317581Y-95281421D01*
X184514500Y-95281421D01*
X184514500Y-95458579D01*
X184518759Y-95485466D01*
X184542214Y-95633556D01*
X184596956Y-95802039D01*
X184596957Y-95802042D01*
X184622434Y-95852042D01*
X184677386Y-95959890D01*
X184781517Y-96103214D01*
X184906786Y-96228483D01*
X185050110Y-96332614D01*
X185127529Y-96372061D01*
X185207957Y-96413042D01*
X185207960Y-96413043D01*
X185292201Y-96440414D01*
X185376445Y-96467786D01*
X185551421Y-96495500D01*
X185551422Y-96495500D01*
X185728578Y-96495500D01*
X185728579Y-96495500D01*
X185903555Y-96467786D01*
X186072042Y-96413042D01*
X186229890Y-96332614D01*
X186373214Y-96228483D01*
X186498483Y-96103214D01*
X186602614Y-95959890D01*
X186683042Y-95802042D01*
X186737786Y-95633555D01*
X186765500Y-95458579D01*
X186765500Y-95281421D01*
X186737786Y-95106445D01*
X186735668Y-95099925D01*
X186726554Y-95071873D01*
X186715687Y-95038428D01*
X193150000Y-95038428D01*
X193150000Y-95150000D01*
X193969670Y-95150000D01*
X193949925Y-95169745D01*
X193900556Y-95255255D01*
X193875000Y-95350630D01*
X193875000Y-95449370D01*
X193900556Y-95544745D01*
X193949925Y-95630255D01*
X193969670Y-95650000D01*
X193150000Y-95650000D01*
X193150000Y-95761571D01*
X193177085Y-95932584D01*
X193230591Y-96097257D01*
X193309195Y-96251524D01*
X193410967Y-96391602D01*
X193533397Y-96514032D01*
X193673475Y-96615804D01*
X193827744Y-96694408D01*
X193992415Y-96747914D01*
X193992414Y-96747914D01*
X193999999Y-96749115D01*
X194000000Y-96749114D01*
X194000000Y-95680330D01*
X194019745Y-95700075D01*
X194105255Y-95749444D01*
X194200630Y-95775000D01*
X194299370Y-95775000D01*
X194394745Y-95749444D01*
X194480255Y-95700075D01*
X194500000Y-95680330D01*
X194500000Y-96749115D01*
X194507584Y-96747914D01*
X194672255Y-96694408D01*
X194826524Y-96615804D01*
X194966598Y-96514035D01*
X195074199Y-96406434D01*
X195135522Y-96372949D01*
X195205214Y-96377933D01*
X195261148Y-96419804D01*
X195267418Y-96429016D01*
X195307288Y-96493656D01*
X195431344Y-96617712D01*
X195580666Y-96709814D01*
X195747203Y-96764999D01*
X195849991Y-96775500D01*
X196650008Y-96775499D01*
X196650016Y-96775498D01*
X196650019Y-96775498D01*
X196706302Y-96769748D01*
X196752797Y-96764999D01*
X196919334Y-96709814D01*
X197068656Y-96617712D01*
X197192712Y-96493656D01*
X197284814Y-96344334D01*
X197339999Y-96177797D01*
X197350500Y-96075009D01*
X197350499Y-94724992D01*
X197339999Y-94622203D01*
X197284814Y-94455666D01*
X197192712Y-94306344D01*
X197068656Y-94182288D01*
X196944310Y-94105591D01*
X196919336Y-94090187D01*
X196919331Y-94090185D01*
X196917862Y-94089698D01*
X196752797Y-94035001D01*
X196752795Y-94035000D01*
X196650010Y-94024500D01*
X195849998Y-94024500D01*
X195849980Y-94024501D01*
X195747203Y-94035000D01*
X195747200Y-94035001D01*
X195580668Y-94090185D01*
X195580663Y-94090187D01*
X195431342Y-94182289D01*
X195307289Y-94306342D01*
X195267420Y-94370981D01*
X195215472Y-94417705D01*
X195146509Y-94428928D01*
X195082427Y-94401084D01*
X195074200Y-94393565D01*
X194966602Y-94285967D01*
X194826524Y-94184195D01*
X194672257Y-94105591D01*
X194507589Y-94052087D01*
X194507581Y-94052085D01*
X194500000Y-94050884D01*
X194500000Y-95119670D01*
X194480255Y-95099925D01*
X194394745Y-95050556D01*
X194299370Y-95025000D01*
X194200630Y-95025000D01*
X194105255Y-95050556D01*
X194019745Y-95099925D01*
X194000000Y-95119670D01*
X194000000Y-94050884D01*
X193999999Y-94050884D01*
X193992418Y-94052085D01*
X193992410Y-94052087D01*
X193827742Y-94105591D01*
X193673475Y-94184195D01*
X193533397Y-94285967D01*
X193410967Y-94408397D01*
X193309195Y-94548475D01*
X193230591Y-94702742D01*
X193177085Y-94867415D01*
X193150000Y-95038428D01*
X186715687Y-95038428D01*
X186683043Y-94937960D01*
X186683042Y-94937957D01*
X186620403Y-94815023D01*
X186602614Y-94780110D01*
X186498483Y-94636786D01*
X186373214Y-94511517D01*
X186229890Y-94407386D01*
X186202765Y-94393565D01*
X186072042Y-94326957D01*
X186072039Y-94326956D01*
X185903556Y-94272214D01*
X185816067Y-94258357D01*
X185728579Y-94244500D01*
X185551421Y-94244500D01*
X185493095Y-94253738D01*
X185376443Y-94272214D01*
X185207960Y-94326956D01*
X185207957Y-94326957D01*
X185050109Y-94407386D01*
X184981291Y-94457386D01*
X184906786Y-94511517D01*
X184906784Y-94511519D01*
X184906783Y-94511519D01*
X184781519Y-94636783D01*
X184781519Y-94636784D01*
X184781517Y-94636786D01*
X184745192Y-94686783D01*
X184677386Y-94780109D01*
X184596957Y-94937957D01*
X184596956Y-94937960D01*
X184542214Y-95106443D01*
X184533080Y-95164114D01*
X184514500Y-95281421D01*
X167317581Y-95281421D01*
X167297786Y-95156445D01*
X167263381Y-95050556D01*
X167243043Y-94987960D01*
X167243042Y-94987957D01*
X167181622Y-94867415D01*
X167162614Y-94830110D01*
X167058483Y-94686786D01*
X166933214Y-94561517D01*
X166789890Y-94457386D01*
X166772558Y-94448555D01*
X166632042Y-94376957D01*
X166632039Y-94376956D01*
X166463556Y-94322214D01*
X166363345Y-94306342D01*
X166288579Y-94294500D01*
X166111421Y-94294500D01*
X166053095Y-94303738D01*
X165936443Y-94322214D01*
X165767960Y-94376956D01*
X165767957Y-94376957D01*
X165610109Y-94457386D01*
X165535605Y-94511517D01*
X165466786Y-94561517D01*
X165466784Y-94561519D01*
X165466783Y-94561519D01*
X165341519Y-94686783D01*
X165341519Y-94686784D01*
X165341517Y-94686786D01*
X165296796Y-94748338D01*
X165237386Y-94830109D01*
X165156957Y-94987957D01*
X165156956Y-94987960D01*
X165102214Y-95156443D01*
X165074500Y-95331421D01*
X148075500Y-95331421D01*
X148075500Y-95281421D01*
X148047786Y-95106445D01*
X148020414Y-95022201D01*
X147993043Y-94937960D01*
X147993042Y-94937957D01*
X147930403Y-94815023D01*
X147912614Y-94780110D01*
X147808483Y-94636786D01*
X147683214Y-94511517D01*
X147539890Y-94407386D01*
X147512765Y-94393565D01*
X147382042Y-94326957D01*
X147382039Y-94326956D01*
X147213556Y-94272214D01*
X147126067Y-94258357D01*
X147038579Y-94244500D01*
X146861421Y-94244500D01*
X146803095Y-94253738D01*
X146686443Y-94272214D01*
X146517960Y-94326956D01*
X146517957Y-94326957D01*
X146360109Y-94407386D01*
X146291291Y-94457386D01*
X146216786Y-94511517D01*
X146216784Y-94511519D01*
X146216783Y-94511519D01*
X146091519Y-94636783D01*
X146091519Y-94636784D01*
X146091517Y-94636786D01*
X146055192Y-94686783D01*
X145987386Y-94780109D01*
X145906957Y-94937957D01*
X145906956Y-94937960D01*
X145852214Y-95106443D01*
X145843080Y-95164114D01*
X145824500Y-95281421D01*
X128675500Y-95281421D01*
X128647786Y-95106445D01*
X128620414Y-95022201D01*
X128593043Y-94937960D01*
X128593042Y-94937957D01*
X128530403Y-94815023D01*
X128512614Y-94780110D01*
X128408483Y-94636786D01*
X128283214Y-94511517D01*
X128139890Y-94407386D01*
X128112765Y-94393565D01*
X127982042Y-94326957D01*
X127982039Y-94326956D01*
X127813556Y-94272214D01*
X127726067Y-94258357D01*
X127638579Y-94244500D01*
X127461421Y-94244500D01*
X127403095Y-94253738D01*
X127286443Y-94272214D01*
X127117960Y-94326956D01*
X127117957Y-94326957D01*
X126960109Y-94407386D01*
X126891291Y-94457386D01*
X126816786Y-94511517D01*
X126816784Y-94511519D01*
X126816783Y-94511519D01*
X126691519Y-94636783D01*
X126691519Y-94636784D01*
X126691517Y-94636786D01*
X126655192Y-94686783D01*
X126587386Y-94780109D01*
X126506957Y-94937957D01*
X126506956Y-94937960D01*
X126452214Y-95106443D01*
X126443080Y-95164114D01*
X126424500Y-95281421D01*
X109325500Y-95281421D01*
X109297786Y-95106445D01*
X109270414Y-95022201D01*
X109243043Y-94937960D01*
X109243042Y-94937957D01*
X109180403Y-94815023D01*
X109162614Y-94780110D01*
X109058483Y-94636786D01*
X108933214Y-94511517D01*
X108789890Y-94407386D01*
X108762765Y-94393565D01*
X108632042Y-94326957D01*
X108632039Y-94326956D01*
X108463556Y-94272214D01*
X108376067Y-94258357D01*
X108288579Y-94244500D01*
X108111421Y-94244500D01*
X108053095Y-94253738D01*
X107936443Y-94272214D01*
X107767960Y-94326956D01*
X107767957Y-94326957D01*
X107610109Y-94407386D01*
X107541291Y-94457386D01*
X107466786Y-94511517D01*
X107466784Y-94511519D01*
X107466783Y-94511519D01*
X107341519Y-94636783D01*
X107341519Y-94636784D01*
X107341517Y-94636786D01*
X107305192Y-94686783D01*
X107237386Y-94780109D01*
X107156957Y-94937957D01*
X107156956Y-94937960D01*
X107102214Y-95106443D01*
X107093080Y-95164114D01*
X107074500Y-95281421D01*
X92660115Y-95281421D01*
X92621904Y-95259360D01*
X92571785Y-95230423D01*
X92515659Y-95215383D01*
X92507723Y-95212023D01*
X92487090Y-95195125D01*
X92464325Y-95181249D01*
X92456741Y-95170271D01*
X92453668Y-95167754D01*
X92452488Y-95164114D01*
X92445596Y-95154137D01*
X92422287Y-95108390D01*
X92301966Y-94942781D01*
X92157219Y-94798034D01*
X92157213Y-94798028D01*
X91991614Y-94677715D01*
X91911280Y-94636783D01*
X91898917Y-94630483D01*
X91848123Y-94582511D01*
X91831328Y-94514690D01*
X91853865Y-94448555D01*
X91898917Y-94409516D01*
X91991610Y-94362287D01*
X92040238Y-94326957D01*
X92157213Y-94241971D01*
X92157215Y-94241968D01*
X92157219Y-94241966D01*
X92301966Y-94097219D01*
X92301968Y-94097215D01*
X92301971Y-94097213D01*
X92354799Y-94024500D01*
X92422287Y-93931610D01*
X92515220Y-93749219D01*
X92578477Y-93554534D01*
X92610500Y-93352352D01*
X92610500Y-93147648D01*
X92580712Y-92959576D01*
X92578477Y-92945465D01*
X92537625Y-92819737D01*
X92515220Y-92750781D01*
X92515218Y-92750778D01*
X92515218Y-92750776D01*
X92476224Y-92674248D01*
X92422287Y-92568390D01*
X92414556Y-92557749D01*
X92301971Y-92402786D01*
X92157213Y-92258028D01*
X91991613Y-92137715D01*
X91991612Y-92137714D01*
X91991610Y-92137713D01*
X91934653Y-92108691D01*
X91809223Y-92044781D01*
X91614534Y-91981522D01*
X91439995Y-91953878D01*
X91412352Y-91949500D01*
X90807648Y-91949500D01*
X90783329Y-91953351D01*
X90605465Y-91981522D01*
X90410776Y-92044781D01*
X90228386Y-92137715D01*
X90062786Y-92258028D01*
X89918028Y-92402786D01*
X89797715Y-92568386D01*
X89704781Y-92750776D01*
X89641522Y-92945465D01*
X89609500Y-93147648D01*
X89609500Y-93352351D01*
X89641522Y-93554534D01*
X89704781Y-93749223D01*
X89797715Y-93931613D01*
X89918028Y-94097213D01*
X90062786Y-94241971D01*
X90179762Y-94326957D01*
X90228390Y-94362287D01*
X90316902Y-94407386D01*
X90321080Y-94409515D01*
X90371876Y-94457490D01*
X90388671Y-94525311D01*
X90366134Y-94591446D01*
X90321080Y-94630485D01*
X90228386Y-94677715D01*
X90062786Y-94798028D01*
X89918028Y-94942786D01*
X89797715Y-95108386D01*
X89704781Y-95290776D01*
X89641522Y-95485465D01*
X89609500Y-95687648D01*
X89609500Y-95892351D01*
X89641522Y-96094534D01*
X89704781Y-96289223D01*
X89752367Y-96382614D01*
X89795764Y-96467785D01*
X89797715Y-96471613D01*
X89918028Y-96637213D01*
X90062786Y-96781971D01*
X90217749Y-96894556D01*
X90228390Y-96902287D01*
X90289659Y-96933505D01*
X90321080Y-96949515D01*
X90371876Y-96997490D01*
X90388671Y-97065311D01*
X90366134Y-97131446D01*
X90321080Y-97170485D01*
X90228386Y-97217715D01*
X90062786Y-97338028D01*
X89918028Y-97482786D01*
X89797715Y-97648386D01*
X89704781Y-97830776D01*
X89641522Y-98025465D01*
X89609500Y-98227648D01*
X89609500Y-98432351D01*
X89641522Y-98634534D01*
X89704781Y-98829223D01*
X89759438Y-98936492D01*
X89780696Y-98978213D01*
X89797715Y-99011613D01*
X89918028Y-99177213D01*
X90062786Y-99321971D01*
X90199008Y-99420940D01*
X90228390Y-99442287D01*
X90319840Y-99488883D01*
X90321080Y-99489515D01*
X90371876Y-99537490D01*
X90388671Y-99605311D01*
X90366134Y-99671446D01*
X90321080Y-99710485D01*
X90228386Y-99757715D01*
X90062786Y-99878028D01*
X89918028Y-100022786D01*
X89797715Y-100188386D01*
X89704781Y-100370776D01*
X89641522Y-100565465D01*
X89609500Y-100767648D01*
X89609500Y-100972351D01*
X89641522Y-101174534D01*
X89704781Y-101369223D01*
X89797715Y-101551613D01*
X89918028Y-101717213D01*
X90062786Y-101861971D01*
X90217749Y-101974556D01*
X90228390Y-101982287D01*
X90319840Y-102028883D01*
X90321080Y-102029515D01*
X90371876Y-102077490D01*
X90388671Y-102145311D01*
X90366134Y-102211446D01*
X90321080Y-102250485D01*
X90228386Y-102297715D01*
X90062786Y-102418028D01*
X89918028Y-102562786D01*
X89797715Y-102728386D01*
X89704781Y-102910776D01*
X89641522Y-103105465D01*
X89609500Y-103307648D01*
X89609500Y-103512351D01*
X89641522Y-103714534D01*
X89704781Y-103909223D01*
X89746250Y-103990609D01*
X89793320Y-104082989D01*
X89797715Y-104091613D01*
X89918028Y-104257213D01*
X90062786Y-104401971D01*
X90179762Y-104486957D01*
X90228390Y-104522287D01*
X90316902Y-104567386D01*
X90321080Y-104569515D01*
X90371876Y-104617490D01*
X90388671Y-104685311D01*
X90366134Y-104751446D01*
X90321080Y-104790485D01*
X90228386Y-104837715D01*
X90062786Y-104958028D01*
X89918028Y-105102786D01*
X89797715Y-105268386D01*
X89704781Y-105450776D01*
X89641522Y-105645465D01*
X89609500Y-105847648D01*
X89609500Y-106052351D01*
X89641522Y-106254534D01*
X89704781Y-106449223D01*
X89752367Y-106542614D01*
X89795764Y-106627785D01*
X89797715Y-106631613D01*
X89918028Y-106797213D01*
X90062786Y-106941971D01*
X90217749Y-107054556D01*
X90228390Y-107062287D01*
X90300424Y-107098990D01*
X90321629Y-107109795D01*
X90372425Y-107157770D01*
X90389220Y-107225591D01*
X90366682Y-107291726D01*
X90321629Y-107330765D01*
X90228650Y-107378140D01*
X90063105Y-107498417D01*
X90063104Y-107498417D01*
X89918417Y-107643104D01*
X89918417Y-107643105D01*
X89798140Y-107808650D01*
X89705244Y-107990970D01*
X89642009Y-108185586D01*
X89633391Y-108240000D01*
X90734722Y-108240000D01*
X90690667Y-108316306D01*
X90660000Y-108430756D01*
X90660000Y-108549244D01*
X90690667Y-108663694D01*
X90734722Y-108740000D01*
X89633391Y-108740000D01*
X89642009Y-108794413D01*
X89705244Y-108989029D01*
X89798140Y-109171349D01*
X89918417Y-109336894D01*
X89918417Y-109336895D01*
X90063104Y-109481582D01*
X90228652Y-109601861D01*
X90321628Y-109649234D01*
X90372425Y-109697208D01*
X90389220Y-109765029D01*
X90366683Y-109831164D01*
X90321630Y-109870203D01*
X90228388Y-109917713D01*
X90062786Y-110038028D01*
X89918028Y-110182786D01*
X89797715Y-110348386D01*
X89704781Y-110530776D01*
X89641523Y-110725464D01*
X89622601Y-110844930D01*
X89592671Y-110908064D01*
X89533360Y-110944995D01*
X89463497Y-110943997D01*
X89412447Y-110913212D01*
X86787590Y-108288355D01*
X86787588Y-108288352D01*
X86668717Y-108169481D01*
X86668716Y-108169480D01*
X86581904Y-108119360D01*
X86581904Y-108119359D01*
X86581900Y-108119358D01*
X86531785Y-108090423D01*
X86379057Y-108049499D01*
X86220943Y-108049499D01*
X86213347Y-108049499D01*
X86213331Y-108049500D01*
X74700098Y-108049500D01*
X74633059Y-108029815D01*
X74612417Y-108013181D01*
X73886819Y-107287583D01*
X73853334Y-107226260D01*
X73850500Y-107199902D01*
X73850500Y-105279765D01*
X73870185Y-105212726D01*
X73871398Y-105210874D01*
X73959390Y-105079185D01*
X73959390Y-105079184D01*
X73959394Y-105079179D01*
X74019737Y-104933497D01*
X74050500Y-104778842D01*
X74050500Y-104621158D01*
X74050500Y-104621155D01*
X74050499Y-104621153D01*
X74036258Y-104549561D01*
X74019737Y-104466503D01*
X73988006Y-104389897D01*
X73959397Y-104320827D01*
X73959390Y-104320814D01*
X73871789Y-104189711D01*
X73871786Y-104189707D01*
X73760292Y-104078213D01*
X73760288Y-104078210D01*
X73629185Y-103990609D01*
X73629172Y-103990602D01*
X73483501Y-103930264D01*
X73483489Y-103930261D01*
X73328845Y-103899500D01*
X73328842Y-103899500D01*
X73171158Y-103899500D01*
X73171157Y-103899500D01*
X73147954Y-103904115D01*
X73078363Y-103897886D01*
X73023186Y-103855022D01*
X72999943Y-103789132D01*
X72999765Y-103782497D01*
X72999765Y-103488325D01*
X72999766Y-103488312D01*
X72999766Y-103320209D01*
X72994114Y-103299115D01*
X72958842Y-103167481D01*
X72923038Y-103105466D01*
X72879789Y-103030555D01*
X72879783Y-103030547D01*
X72618718Y-102769483D01*
X72618716Y-102769481D01*
X72481785Y-102690423D01*
X72329057Y-102649499D01*
X72170943Y-102649499D01*
X72056397Y-102680192D01*
X72018214Y-102690423D01*
X71881284Y-102769481D01*
X71881281Y-102769483D01*
X71877584Y-102773181D01*
X71816261Y-102806666D01*
X71789903Y-102809500D01*
X69679602Y-102809500D01*
X69612563Y-102789815D01*
X69569117Y-102741795D01*
X69563322Y-102730422D01*
X69562287Y-102728390D01*
X69562285Y-102728387D01*
X69562284Y-102728385D01*
X69441971Y-102562786D01*
X69297213Y-102418028D01*
X69131614Y-102297715D01*
X69125006Y-102294348D01*
X69038917Y-102250483D01*
X68988123Y-102202511D01*
X68971328Y-102134690D01*
X68993865Y-102068555D01*
X69038917Y-102029516D01*
X69131610Y-101982287D01*
X69152770Y-101966913D01*
X69297213Y-101861971D01*
X69297215Y-101861968D01*
X69297219Y-101861966D01*
X69441966Y-101717219D01*
X69441968Y-101717215D01*
X69441971Y-101717213D01*
X69545293Y-101575000D01*
X69562287Y-101551610D01*
X69655220Y-101369219D01*
X69718477Y-101174534D01*
X69750500Y-100972352D01*
X69750500Y-100767648D01*
X69718477Y-100565465D01*
X69689127Y-100475137D01*
X69655220Y-100370781D01*
X69655218Y-100370778D01*
X69655218Y-100370776D01*
X69620624Y-100302883D01*
X69562287Y-100188390D01*
X69554556Y-100177749D01*
X69441971Y-100022786D01*
X69297213Y-99878028D01*
X69131614Y-99757715D01*
X69113990Y-99748735D01*
X69038917Y-99710483D01*
X68988123Y-99662511D01*
X68971328Y-99594690D01*
X68993865Y-99528555D01*
X69038917Y-99489516D01*
X69131610Y-99442287D01*
X69175693Y-99410259D01*
X69297213Y-99321971D01*
X69297215Y-99321968D01*
X69297219Y-99321966D01*
X69441966Y-99177219D01*
X69441968Y-99177215D01*
X69441971Y-99177213D01*
X69505547Y-99089707D01*
X69562287Y-99011610D01*
X69655220Y-98829219D01*
X69718477Y-98634534D01*
X69750500Y-98432352D01*
X69750500Y-98227648D01*
X69718477Y-98025466D01*
X69697205Y-97959999D01*
X69680959Y-97909999D01*
X69655220Y-97830781D01*
X69655218Y-97830778D01*
X69655218Y-97830776D01*
X69621503Y-97764607D01*
X69562287Y-97648390D01*
X69531813Y-97606446D01*
X69441971Y-97482786D01*
X69297213Y-97338028D01*
X69131614Y-97217715D01*
X69092921Y-97198000D01*
X69038917Y-97170483D01*
X68988123Y-97122511D01*
X68971328Y-97054690D01*
X68993865Y-96988555D01*
X69038917Y-96949516D01*
X69131610Y-96902287D01*
X69152770Y-96886913D01*
X69297213Y-96781971D01*
X69297215Y-96781968D01*
X69297219Y-96781966D01*
X69441966Y-96637219D01*
X69441968Y-96637215D01*
X69441971Y-96637213D01*
X69494732Y-96564590D01*
X69562287Y-96471610D01*
X69655220Y-96289219D01*
X69718477Y-96094534D01*
X69750500Y-95892352D01*
X69750500Y-95687648D01*
X69718477Y-95485466D01*
X69655220Y-95290781D01*
X69655218Y-95290778D01*
X69655218Y-95290776D01*
X69606481Y-95195125D01*
X69562287Y-95108390D01*
X69535756Y-95071873D01*
X69441971Y-94942786D01*
X69410736Y-94911551D01*
X69377251Y-94850228D01*
X69382235Y-94780536D01*
X69424107Y-94724603D01*
X69455080Y-94707689D01*
X69492331Y-94693796D01*
X69607546Y-94607546D01*
X69693796Y-94492331D01*
X69744091Y-94357483D01*
X69750500Y-94297873D01*
X69750499Y-92202128D01*
X69744091Y-92142517D01*
X69742299Y-92137713D01*
X69693797Y-92007671D01*
X69693793Y-92007664D01*
X69607547Y-91892455D01*
X69607544Y-91892452D01*
X69492335Y-91806206D01*
X69492328Y-91806202D01*
X69357482Y-91755908D01*
X69357483Y-91755908D01*
X69297883Y-91749501D01*
X69297881Y-91749500D01*
X69297873Y-91749500D01*
X69297864Y-91749500D01*
X67202129Y-91749500D01*
X67202123Y-91749501D01*
X67142516Y-91755908D01*
X67007671Y-91806202D01*
X67007664Y-91806206D01*
X66892455Y-91892452D01*
X66892452Y-91892455D01*
X66806206Y-92007664D01*
X66806202Y-92007671D01*
X66755908Y-92142517D01*
X66749501Y-92202116D01*
X66749501Y-92202123D01*
X66749500Y-92202135D01*
X62400500Y-92202135D01*
X62400500Y-88751577D01*
X68249500Y-88751577D01*
X68249500Y-88948422D01*
X68280290Y-89142826D01*
X68341117Y-89330029D01*
X68417587Y-89480109D01*
X68430476Y-89505405D01*
X68546172Y-89664646D01*
X68685354Y-89803828D01*
X68844595Y-89919524D01*
X68927455Y-89961743D01*
X69019970Y-90008882D01*
X69019972Y-90008882D01*
X69019975Y-90008884D01*
X69115438Y-90039902D01*
X69207173Y-90069709D01*
X69401578Y-90100500D01*
X69401583Y-90100500D01*
X69598422Y-90100500D01*
X69792826Y-90069709D01*
X69980025Y-90008884D01*
X70155405Y-89919524D01*
X70314646Y-89803828D01*
X70453828Y-89664646D01*
X70569524Y-89505405D01*
X70658884Y-89330025D01*
X70719709Y-89142826D01*
X70729428Y-89081463D01*
X70750500Y-88948422D01*
X70750500Y-88751577D01*
X88649500Y-88751577D01*
X88649500Y-88948422D01*
X88680290Y-89142826D01*
X88741117Y-89330029D01*
X88817587Y-89480109D01*
X88830476Y-89505405D01*
X88946172Y-89664646D01*
X89085354Y-89803828D01*
X89244595Y-89919524D01*
X89327455Y-89961743D01*
X89419970Y-90008882D01*
X89419972Y-90008882D01*
X89419975Y-90008884D01*
X89515438Y-90039902D01*
X89607173Y-90069709D01*
X89801578Y-90100500D01*
X89801583Y-90100500D01*
X89998422Y-90100500D01*
X90192826Y-90069709D01*
X90380025Y-90008884D01*
X90555405Y-89919524D01*
X90714646Y-89803828D01*
X90853828Y-89664646D01*
X90969524Y-89505405D01*
X91058884Y-89330025D01*
X91119709Y-89142826D01*
X91129428Y-89081463D01*
X91150500Y-88948422D01*
X91150500Y-88751577D01*
X91137268Y-88668036D01*
X91119709Y-88557173D01*
X91091487Y-88470317D01*
X91058884Y-88369975D01*
X91058882Y-88369972D01*
X91058882Y-88369970D01*
X90969523Y-88194594D01*
X90853828Y-88035354D01*
X90714646Y-87896172D01*
X90555405Y-87780476D01*
X90380029Y-87691117D01*
X90345689Y-87679959D01*
X90275772Y-87657242D01*
X90192826Y-87630290D01*
X89998422Y-87599500D01*
X89998417Y-87599500D01*
X89801583Y-87599500D01*
X89801578Y-87599500D01*
X89607173Y-87630290D01*
X89419970Y-87691117D01*
X89244594Y-87780476D01*
X89153741Y-87846485D01*
X89085354Y-87896172D01*
X89085352Y-87896174D01*
X89085351Y-87896174D01*
X88946174Y-88035351D01*
X88946174Y-88035352D01*
X88946172Y-88035354D01*
X88935603Y-88049901D01*
X88830476Y-88194594D01*
X88741117Y-88369970D01*
X88680290Y-88557173D01*
X88649500Y-88751577D01*
X70750500Y-88751577D01*
X70719709Y-88557173D01*
X70691487Y-88470317D01*
X70658884Y-88369975D01*
X70658882Y-88369972D01*
X70658882Y-88369970D01*
X70569523Y-88194594D01*
X70453828Y-88035354D01*
X70314646Y-87896172D01*
X70155405Y-87780476D01*
X69980029Y-87691117D01*
X69792826Y-87630290D01*
X69598422Y-87599500D01*
X69598417Y-87599500D01*
X69401583Y-87599500D01*
X69401578Y-87599500D01*
X69207173Y-87630290D01*
X69019970Y-87691117D01*
X68844594Y-87780476D01*
X68753741Y-87846485D01*
X68685354Y-87896172D01*
X68685352Y-87896174D01*
X68685351Y-87896174D01*
X68546174Y-88035351D01*
X68546174Y-88035352D01*
X68546172Y-88035354D01*
X68535603Y-88049901D01*
X68430476Y-88194594D01*
X68341117Y-88369970D01*
X68280290Y-88557173D01*
X68249500Y-88751577D01*
X62400500Y-88751577D01*
X62400500Y-87552155D01*
X98040000Y-87552155D01*
X98040000Y-88200000D01*
X98956988Y-88200000D01*
X98924075Y-88257007D01*
X98890000Y-88384174D01*
X98890000Y-88515826D01*
X98924075Y-88642993D01*
X98956988Y-88700000D01*
X98040000Y-88700000D01*
X98040000Y-89347844D01*
X98046401Y-89407372D01*
X98046403Y-89407379D01*
X98096645Y-89542086D01*
X98096649Y-89542093D01*
X98182809Y-89657187D01*
X98182812Y-89657190D01*
X98297906Y-89743350D01*
X98297913Y-89743354D01*
X98432620Y-89793596D01*
X98432627Y-89793598D01*
X98492155Y-89799999D01*
X98492172Y-89800000D01*
X99140000Y-89800000D01*
X99140000Y-88883012D01*
X99197007Y-88915925D01*
X99324174Y-88950000D01*
X99455826Y-88950000D01*
X99582993Y-88915925D01*
X99640000Y-88883012D01*
X99640000Y-89800000D01*
X100287828Y-89800000D01*
X100287844Y-89799999D01*
X100347372Y-89793598D01*
X100347379Y-89793596D01*
X100482086Y-89743354D01*
X100482093Y-89743350D01*
X100597187Y-89657190D01*
X100597190Y-89657187D01*
X100683350Y-89542093D01*
X100683354Y-89542086D01*
X100732422Y-89410529D01*
X100774293Y-89354595D01*
X100839757Y-89330178D01*
X100908030Y-89345030D01*
X100936285Y-89366181D01*
X101050213Y-89480109D01*
X101222179Y-89605048D01*
X101222181Y-89605049D01*
X101222184Y-89605051D01*
X101411588Y-89701557D01*
X101613757Y-89767246D01*
X101823713Y-89800500D01*
X101823714Y-89800500D01*
X102036286Y-89800500D01*
X102036287Y-89800500D01*
X102246243Y-89767246D01*
X102448412Y-89701557D01*
X102637816Y-89605051D01*
X102724471Y-89542093D01*
X102809786Y-89480109D01*
X102809788Y-89480106D01*
X102809792Y-89480104D01*
X102960104Y-89329792D01*
X102960106Y-89329788D01*
X102960109Y-89329786D01*
X103085048Y-89157820D01*
X103085047Y-89157820D01*
X103085051Y-89157816D01*
X103089514Y-89149054D01*
X103137488Y-89098259D01*
X103205308Y-89081463D01*
X103271444Y-89103999D01*
X103310486Y-89149056D01*
X103314951Y-89157820D01*
X103439890Y-89329786D01*
X103590213Y-89480109D01*
X103762179Y-89605048D01*
X103762181Y-89605049D01*
X103762184Y-89605051D01*
X103951588Y-89701557D01*
X104153757Y-89767246D01*
X104363713Y-89800500D01*
X104363714Y-89800500D01*
X104576286Y-89800500D01*
X104576287Y-89800500D01*
X104786243Y-89767246D01*
X104988412Y-89701557D01*
X105177816Y-89605051D01*
X105264471Y-89542093D01*
X105349786Y-89480109D01*
X105349788Y-89480106D01*
X105349792Y-89480104D01*
X105500104Y-89329792D01*
X105500106Y-89329788D01*
X105500109Y-89329786D01*
X105625048Y-89157820D01*
X105625047Y-89157820D01*
X105625051Y-89157816D01*
X105629514Y-89149054D01*
X105677488Y-89098259D01*
X105745308Y-89081463D01*
X105811444Y-89103999D01*
X105850486Y-89149056D01*
X105854951Y-89157820D01*
X105979890Y-89329786D01*
X106130213Y-89480109D01*
X106302184Y-89605051D01*
X106302184Y-89605052D01*
X106341793Y-89625233D01*
X106392590Y-89673206D01*
X106409500Y-89735718D01*
X106409500Y-90039902D01*
X106389815Y-90106941D01*
X106373181Y-90127583D01*
X104619481Y-91881282D01*
X104619477Y-91881287D01*
X104597429Y-91919478D01*
X104597428Y-91919480D01*
X104540423Y-92018215D01*
X104499499Y-92170943D01*
X104499499Y-92170945D01*
X104499499Y-92339046D01*
X104499500Y-92339059D01*
X104499500Y-93070234D01*
X104479815Y-93137273D01*
X104478602Y-93139125D01*
X104390609Y-93270814D01*
X104390602Y-93270827D01*
X104330264Y-93416498D01*
X104330261Y-93416510D01*
X104299500Y-93571153D01*
X104299500Y-93728846D01*
X104330261Y-93883489D01*
X104330264Y-93883501D01*
X104390602Y-94029172D01*
X104390609Y-94029185D01*
X104478210Y-94160288D01*
X104478213Y-94160292D01*
X104589707Y-94271786D01*
X104589711Y-94271789D01*
X104720814Y-94359390D01*
X104720827Y-94359397D01*
X104861597Y-94417705D01*
X104866503Y-94419737D01*
X105011380Y-94448555D01*
X105021153Y-94450499D01*
X105021156Y-94450500D01*
X105021158Y-94450500D01*
X105178844Y-94450500D01*
X105178845Y-94450499D01*
X105333497Y-94419737D01*
X105479179Y-94359394D01*
X105610289Y-94271789D01*
X105721789Y-94160289D01*
X105809394Y-94029179D01*
X105869737Y-93883497D01*
X105900500Y-93728842D01*
X105900500Y-93571158D01*
X105900500Y-93571155D01*
X105900499Y-93571153D01*
X105869738Y-93416510D01*
X105869737Y-93416503D01*
X105843165Y-93352351D01*
X105809397Y-93270827D01*
X105809390Y-93270814D01*
X105721398Y-93139125D01*
X105700520Y-93072447D01*
X105700500Y-93070234D01*
X105700500Y-92777350D01*
X105720185Y-92710311D01*
X105772989Y-92664556D01*
X105842147Y-92654612D01*
X105893391Y-92674248D01*
X106020814Y-92759390D01*
X106020827Y-92759397D01*
X106166498Y-92819735D01*
X106166503Y-92819737D01*
X106321158Y-92850500D01*
X106321847Y-92850637D01*
X106373315Y-92877559D01*
X106374839Y-92875574D01*
X106381281Y-92880517D01*
X106381284Y-92880520D01*
X106381287Y-92880521D01*
X106381290Y-92880524D01*
X106493773Y-92945465D01*
X106518216Y-92959577D01*
X106670943Y-93000501D01*
X106670945Y-93000501D01*
X106836654Y-93000501D01*
X106836670Y-93000500D01*
X118120234Y-93000500D01*
X118187273Y-93020185D01*
X118189125Y-93021398D01*
X118320814Y-93109390D01*
X118320827Y-93109397D01*
X118466498Y-93169735D01*
X118466503Y-93169737D01*
X118621153Y-93200499D01*
X118621156Y-93200500D01*
X118621158Y-93200500D01*
X118778844Y-93200500D01*
X118778845Y-93200499D01*
X118933497Y-93169737D01*
X119079179Y-93109394D01*
X119210289Y-93021789D01*
X119321789Y-92910289D01*
X119409394Y-92779179D01*
X119469737Y-92633497D01*
X119500500Y-92478842D01*
X119500500Y-92321158D01*
X119500500Y-92321155D01*
X119500499Y-92321153D01*
X119487944Y-92258034D01*
X119469737Y-92166503D01*
X119457812Y-92137713D01*
X119409397Y-92020827D01*
X119409390Y-92020814D01*
X119321789Y-91889711D01*
X119321786Y-91889707D01*
X119210292Y-91778213D01*
X119210288Y-91778210D01*
X119079185Y-91690609D01*
X119079172Y-91690602D01*
X118933501Y-91630264D01*
X118933489Y-91630261D01*
X118778845Y-91599500D01*
X118778842Y-91599500D01*
X118621158Y-91599500D01*
X118621155Y-91599500D01*
X118466510Y-91630261D01*
X118466498Y-91630264D01*
X118320827Y-91690602D01*
X118320814Y-91690609D01*
X118189125Y-91778602D01*
X118122447Y-91799480D01*
X118120234Y-91799500D01*
X107245548Y-91799500D01*
X107178509Y-91779815D01*
X107132754Y-91727011D01*
X107130987Y-91722952D01*
X107117587Y-91690602D01*
X107109394Y-91670821D01*
X107109392Y-91670819D01*
X107109392Y-91670817D01*
X107021789Y-91539711D01*
X107021786Y-91539707D01*
X106928337Y-91446258D01*
X106894852Y-91384935D01*
X106899836Y-91315243D01*
X106928335Y-91270898D01*
X107378713Y-90820521D01*
X107378716Y-90820520D01*
X107490520Y-90708716D01*
X107540639Y-90621904D01*
X107569577Y-90571785D01*
X107610501Y-90419057D01*
X107610501Y-90260943D01*
X107610501Y-90253348D01*
X107610500Y-90253330D01*
X107610500Y-89735718D01*
X107630185Y-89668679D01*
X107678207Y-89625233D01*
X107717815Y-89605052D01*
X107717815Y-89605051D01*
X107717816Y-89605051D01*
X107809193Y-89538661D01*
X107889786Y-89480109D01*
X107889788Y-89480106D01*
X107889792Y-89480104D01*
X108040104Y-89329792D01*
X108040106Y-89329788D01*
X108040109Y-89329786D01*
X108165048Y-89157820D01*
X108165047Y-89157820D01*
X108165051Y-89157816D01*
X108169514Y-89149054D01*
X108217488Y-89098259D01*
X108285308Y-89081463D01*
X108351444Y-89103999D01*
X108390486Y-89149056D01*
X108394951Y-89157820D01*
X108519890Y-89329786D01*
X108670207Y-89480103D01*
X108732252Y-89525181D01*
X108774918Y-89580511D01*
X108780897Y-89650124D01*
X108748292Y-89711920D01*
X108687453Y-89746277D01*
X108659367Y-89749500D01*
X108635929Y-89749500D01*
X108510261Y-89774497D01*
X108510255Y-89774499D01*
X108391875Y-89823533D01*
X108391866Y-89823538D01*
X108285331Y-89894723D01*
X108285327Y-89894726D01*
X108194726Y-89985327D01*
X108194723Y-89985331D01*
X108123538Y-90091866D01*
X108123533Y-90091875D01*
X108074499Y-90210255D01*
X108074497Y-90210261D01*
X108049500Y-90335928D01*
X108049500Y-90335931D01*
X108049500Y-90464069D01*
X108049500Y-90464071D01*
X108049499Y-90464071D01*
X108074497Y-90589738D01*
X108074499Y-90589744D01*
X108123533Y-90708124D01*
X108123538Y-90708133D01*
X108194723Y-90814668D01*
X108194726Y-90814672D01*
X108285327Y-90905273D01*
X108285331Y-90905276D01*
X108391866Y-90976461D01*
X108391872Y-90976464D01*
X108391873Y-90976465D01*
X108510256Y-91025501D01*
X108510260Y-91025501D01*
X108510261Y-91025502D01*
X108635928Y-91050500D01*
X108635931Y-91050500D01*
X108764071Y-91050500D01*
X108848615Y-91033682D01*
X108889744Y-91025501D01*
X108908235Y-91017841D01*
X108927315Y-91009939D01*
X108974767Y-91000500D01*
X110053331Y-91000500D01*
X110053347Y-91000501D01*
X110060943Y-91000501D01*
X110219054Y-91000501D01*
X110219057Y-91000501D01*
X110371785Y-90959577D01*
X110452486Y-90912984D01*
X110508716Y-90880520D01*
X110620520Y-90768716D01*
X110620520Y-90768714D01*
X110630724Y-90758511D01*
X110630728Y-90758506D01*
X111605478Y-89783755D01*
X111666799Y-89750272D01*
X111731473Y-89753506D01*
X111773757Y-89767246D01*
X111983713Y-89800500D01*
X111983714Y-89800500D01*
X112196286Y-89800500D01*
X112196287Y-89800500D01*
X112406243Y-89767246D01*
X112608412Y-89701557D01*
X112797816Y-89605051D01*
X112884471Y-89542093D01*
X112969786Y-89480109D01*
X112969788Y-89480106D01*
X112969792Y-89480104D01*
X113120104Y-89329792D01*
X113120106Y-89329788D01*
X113120109Y-89329786D01*
X113245048Y-89157820D01*
X113245047Y-89157820D01*
X113245051Y-89157816D01*
X113249514Y-89149054D01*
X113297488Y-89098259D01*
X113365308Y-89081463D01*
X113431444Y-89103999D01*
X113470486Y-89149056D01*
X113474951Y-89157820D01*
X113599890Y-89329786D01*
X113750213Y-89480109D01*
X113922179Y-89605048D01*
X113922181Y-89605049D01*
X113922184Y-89605051D01*
X114111588Y-89701557D01*
X114313757Y-89767246D01*
X114523713Y-89800500D01*
X114523714Y-89800500D01*
X114736286Y-89800500D01*
X114736287Y-89800500D01*
X114946243Y-89767246D01*
X115148412Y-89701557D01*
X115337816Y-89605051D01*
X115424471Y-89542093D01*
X115509786Y-89480109D01*
X115509788Y-89480106D01*
X115509792Y-89480104D01*
X115660104Y-89329792D01*
X115660106Y-89329788D01*
X115660109Y-89329786D01*
X115785048Y-89157820D01*
X115785047Y-89157820D01*
X115785051Y-89157816D01*
X115789514Y-89149054D01*
X115837488Y-89098259D01*
X115905308Y-89081463D01*
X115971444Y-89103999D01*
X116010486Y-89149056D01*
X116014951Y-89157820D01*
X116139890Y-89329786D01*
X116290213Y-89480109D01*
X116462179Y-89605048D01*
X116462181Y-89605049D01*
X116462184Y-89605051D01*
X116651588Y-89701557D01*
X116853757Y-89767246D01*
X117063713Y-89800500D01*
X117063714Y-89800500D01*
X117276286Y-89800500D01*
X117276287Y-89800500D01*
X117486243Y-89767246D01*
X117688412Y-89701557D01*
X117877816Y-89605051D01*
X117964471Y-89542093D01*
X118049786Y-89480109D01*
X118049788Y-89480106D01*
X118049792Y-89480104D01*
X118200104Y-89329792D01*
X118200106Y-89329788D01*
X118200109Y-89329786D01*
X118325048Y-89157820D01*
X118325047Y-89157820D01*
X118325051Y-89157816D01*
X118421557Y-88968412D01*
X118487246Y-88766243D01*
X118520500Y-88556287D01*
X118520500Y-88343713D01*
X118487246Y-88133757D01*
X118421557Y-87931588D01*
X118325051Y-87742184D01*
X118325049Y-87742181D01*
X118325048Y-87742179D01*
X118200109Y-87570213D01*
X118049792Y-87419896D01*
X117991091Y-87377248D01*
X117948425Y-87321918D01*
X117942358Y-87301116D01*
X117941132Y-87294951D01*
X117939468Y-87286584D01*
X117902959Y-87198443D01*
X117879147Y-87140955D01*
X117879145Y-87140952D01*
X117791573Y-87009890D01*
X117791567Y-87009883D01*
X117677015Y-86895331D01*
X117676984Y-86895302D01*
X117025912Y-86244230D01*
X117025892Y-86244208D01*
X116910116Y-86128432D01*
X116910109Y-86128426D01*
X116779047Y-86040854D01*
X116779048Y-86040854D01*
X116633416Y-85980532D01*
X116633410Y-85980530D01*
X116478817Y-85949779D01*
X116478815Y-85949779D01*
X116321185Y-85949779D01*
X116315071Y-85949779D01*
X116315051Y-85949780D01*
X103714949Y-85949780D01*
X103714929Y-85949779D01*
X103708815Y-85949779D01*
X103551185Y-85949779D01*
X103551183Y-85949779D01*
X103396589Y-85980530D01*
X103396583Y-85980532D01*
X103250951Y-86040854D01*
X103119890Y-86128426D01*
X103119889Y-86128427D01*
X103064159Y-86184158D01*
X103008428Y-86239889D01*
X103008425Y-86239892D01*
X102178107Y-87070209D01*
X102116784Y-87103694D01*
X102071030Y-87105002D01*
X102036289Y-87099500D01*
X102036287Y-87099500D01*
X101823713Y-87099500D01*
X101775042Y-87107208D01*
X101613760Y-87132753D01*
X101411585Y-87198444D01*
X101222179Y-87294951D01*
X101050215Y-87419889D01*
X100936285Y-87533819D01*
X100874962Y-87567303D01*
X100805270Y-87562319D01*
X100749337Y-87520447D01*
X100732422Y-87489470D01*
X100683354Y-87357913D01*
X100683350Y-87357906D01*
X100597190Y-87242812D01*
X100597187Y-87242809D01*
X100482093Y-87156649D01*
X100482086Y-87156645D01*
X100347379Y-87106403D01*
X100347372Y-87106401D01*
X100287844Y-87100000D01*
X99640000Y-87100000D01*
X99640000Y-88016988D01*
X99582993Y-87984075D01*
X99455826Y-87950000D01*
X99324174Y-87950000D01*
X99197007Y-87984075D01*
X99140000Y-88016988D01*
X99140000Y-87100000D01*
X98492155Y-87100000D01*
X98432627Y-87106401D01*
X98432620Y-87106403D01*
X98297913Y-87156645D01*
X98297906Y-87156649D01*
X98182812Y-87242809D01*
X98182809Y-87242812D01*
X98096649Y-87357906D01*
X98096645Y-87357913D01*
X98046403Y-87492620D01*
X98046401Y-87492627D01*
X98040000Y-87552155D01*
X62400500Y-87552155D01*
X62400500Y-86894066D01*
X62400765Y-86885957D01*
X62404819Y-86824108D01*
X62417417Y-86631883D01*
X62419531Y-86615829D01*
X62468409Y-86370107D01*
X62472606Y-86354445D01*
X62549327Y-86128432D01*
X62553138Y-86117205D01*
X62559336Y-86102239D01*
X62670149Y-85877533D01*
X62678252Y-85863498D01*
X62817448Y-85655176D01*
X62827305Y-85642331D01*
X62992502Y-85453960D01*
X63003960Y-85442502D01*
X63192331Y-85277305D01*
X63205176Y-85267448D01*
X63413498Y-85128252D01*
X63427533Y-85120149D01*
X63652239Y-85009336D01*
X63667205Y-85003138D01*
X63834945Y-84946197D01*
X63904445Y-84922606D01*
X63920107Y-84918409D01*
X64165829Y-84869531D01*
X64181883Y-84867417D01*
X64414848Y-84852148D01*
X64435958Y-84850765D01*
X64444067Y-84850500D01*
X64505892Y-84850500D01*
X200944108Y-84850500D01*
X201005933Y-84850500D01*
X201014042Y-84850765D01*
G37*
%TD.AperFunction*%
%TD*%
M02*
